<svg width="24" height="23" viewBox="0 0 24 23" fill="none" xmlns="http://www.w3.org/2000/svg">
<path d="M14.8252 5.0189H18.2147M18.2147 5.0189H21.6042M18.2147 5.0189V8.40841M18.2147 5.0189V1.62939" stroke="white" stroke-linecap="round"/>
<path d="M1.32227 15.1877C1.39451 14.4533 1.55778 13.9589 1.92677 13.5899C2.58862 12.928 3.65384 12.928 5.78427 12.928C7.91471 12.928 8.97993 12.928 9.64178 13.5899C10.3036 14.2517 10.3036 15.3169 10.3036 17.4474C10.3036 19.5778 10.3036 20.643 9.64178 21.3049C8.97993 21.9667 7.91471 21.9667 5.78427 21.9667C3.65384 21.9667 2.58862 21.9667 1.92677 21.3049C1.57723 20.9553 1.4123 20.4933 1.33447 19.8212" stroke="white" stroke-linecap="round"/>
<path d="M1.2666 5.01934C1.2666 2.88891 1.2666 1.82369 1.92844 1.16184C2.59029 0.5 3.65551 0.5 5.78595 0.5C7.91639 0.5 8.98161 0.5 9.64345 1.16184C10.3053 1.82369 10.3053 2.88891 10.3053 5.01934C10.3053 7.14978 10.3053 8.215 9.64345 8.87685C8.98161 9.53869 7.91639 9.53869 5.78595 9.53869C3.65551 9.53869 2.59029 9.53869 1.92844 8.87685C1.2666 8.215 1.2666 7.14978 1.2666 5.01934Z" stroke="white"/>
<path d="M13.6943 17.4474C13.6943 15.3169 13.6943 14.2517 14.3562 13.5899C15.018 12.928 16.0832 12.928 18.2137 12.928C20.3441 12.928 21.4093 12.928 22.0712 13.5899C22.733 14.2517 22.733 15.3169 22.733 17.4474C22.733 19.5778 22.733 20.643 22.0712 21.3049C21.4093 21.9667 20.3441 21.9667 18.2137 21.9667C16.0832 21.9667 15.018 21.9667 14.3562 21.3049C13.6943 20.643 13.6943 19.5778 13.6943 17.4474Z" stroke="white"/>
</svg>
    