<svg width="30" height="30" viewBox="0 0 30 30" fill="none" xmlns="http://www.w3.org/2000/svg">
<path d="M27.5 14.7474C27.5 11.4569 27.5 9.81169 26.5382 8.74229C26.4497 8.64392 26.3561 8.5503 26.2577 8.46183C25.1883 7.5 23.5431 7.5 20.2526 7.5H19.7855C18.3434 7.5 17.6224 7.5 16.9504 7.30847C16.5813 7.20326 16.2255 7.05589 15.8901 6.86928C15.2796 6.52959 14.7697 6.01972 13.75 5L13.0622 4.31218C12.7204 3.97041 12.5495 3.79952 12.3699 3.65064C11.5957 3.00879 10.6458 2.61536 9.64446 2.52172C9.4122 2.5 9.17053 2.5 8.68718 2.5C7.58402 2.5 7.03244 2.5 6.57298 2.58669C4.55039 2.9683 2.9683 4.55039 2.58669 6.57298C2.5 7.03244 2.5 7.58402 2.5 8.68718M27.4891 20C27.4443 23.0995 27.2144 24.8567 26.0355 26.0355C24.5711 27.5 22.214 27.5 17.5 27.5H12.5C7.78595 27.5 5.42893 27.5 3.96447 26.0355C2.5 24.5711 2.5 22.214 2.5 17.5V13.75" stroke="#858585" stroke-linecap="round"/>
<path d="M12.5 16.875L14.1667 18.75L17.5 15" stroke="#858585" stroke-linecap="round" stroke-linejoin="round"/>
</svg>
