<svg width="30" height="30" viewBox="0 0 30 30" fill="none" xmlns="http://www.w3.org/2000/svg">
<path d="M14.7207 12.5L20.7577 14.1176" stroke="#F01E29" stroke-linecap="round"/>
<path d="M13.75 16.1221L17.3722 17.0927" stroke="#F01E29" stroke-linecap="round"/>
<path d="M25.3895 15.8091C24.6342 18.6279 24.2566 20.0374 23.4004 20.9515C22.7244 21.6732 21.8495 22.1783 20.8865 22.4029C20.7661 22.431 20.6439 22.4526 20.5187 22.468C19.3749 22.6091 17.9792 22.2351 15.4385 21.5543C12.6196 20.799 11.2102 20.4214 10.2961 19.5652C9.57432 18.8892 9.06922 18.0144 8.84466 17.0513C8.56026 15.8316 8.93792 14.4221 9.69323 11.6033L10.3403 9.18847C10.4489 8.78307 10.5497 8.40683 10.6453 8.05702C11.2141 5.97447 11.5964 4.82873 12.3294 4.04608C13.0054 3.32432 13.8803 2.81922 14.8433 2.59466C16.063 2.31026 17.4725 2.68792 20.2913 3.44323C23.1102 4.19853 24.5196 4.57619 25.4337 5.43234C26.1555 6.10835 26.6606 6.98321 26.8851 7.94628C27.0863 8.80885 26.9563 9.7663 26.5958 11.25" stroke="#F01E29" stroke-linecap="round"/>
<path d="M4.09027 20.8087C4.84558 23.6276 5.22324 25.037 6.07939 25.9511C6.7554 26.6729 7.63026 27.178 8.59333 27.4025C9.81305 27.6869 11.2225 27.3093 14.0413 26.554C16.8602 25.7986 18.2696 25.421 19.1837 24.5648C19.7999 23.9877 20.2581 23.2657 20.5187 22.4676M10.6453 8.05664C10.2046 8.17058 9.72176 8.29995 9.18847 8.44285C6.36962 9.19816 4.96019 9.57581 4.04608 10.432C3.32432 11.108 2.81922 11.9828 2.59466 12.9459C2.39352 13.8085 2.52354 14.7661 2.8841 16.25" stroke="#F01E29" stroke-linecap="round" stroke-linejoin="round"/>
</svg>
