<svg width="30" height="30" viewBox="0 0 27 27" fill="none" xmlns="http://www.w3.org/2000/svg">
<path stroke-width="1.5px" d="M7.875 6.75C7.875 7.37132 7.37132 7.875 6.75 7.875C6.12868 7.875 5.625 7.37132 5.625 6.75C5.625 6.12868 6.12868 5.625 6.75 5.625C7.37132 5.625 7.875 6.12868 7.875 6.75Z" fill="#858585"/>
<path stroke-width="1.5px" d="M11.25 6.75C11.25 7.37132 10.7463 7.875 10.125 7.875C9.50368 7.875 9 7.37132 9 6.75C9 6.12868 9.50368 5.625 10.125 5.625C10.7463 5.625 11.25 6.12868 11.25 6.75Z" fill="#858585"/>
<path stroke-width="1.5px" d="M14.625 6.75C14.625 7.37132 14.1213 7.875 13.5 7.875C12.8787 7.875 12.375 7.37132 12.375 6.75C12.375 6.12868 12.8787 5.625 13.5 5.625C14.1213 5.625 14.625 6.12868 14.625 6.75Z" fill="#858585"/>
<path stroke-width="1.5px" d="M2.25 10.6875H24.75" stroke="#858585" stroke-linecap="round"/>
<path stroke-width="1.5px" d="M10.125 23.625L10.125 11.25" stroke="#858585" stroke-linecap="round"/>
<path stroke-width="1.5px" d="M2.25 13.5C2.25 8.1967 2.25 5.54505 3.89752 3.89752C5.54505 2.25 8.1967 2.25 13.5 2.25C18.8033 2.25 21.455 2.25 23.1025 3.89752C24.75 5.54505 24.75 8.1967 24.75 13.5C24.75 18.8033 24.75 21.455 23.1025 23.1025C21.455 24.75 18.8033 24.75 13.5 24.75C8.1967 24.75 5.54505 24.75 3.89752 23.1025C2.80207 22.007 2.43499 20.4676 2.31199 18" stroke="#858585" stroke-linecap="round"/>
</svg>
