<svg width="27" height="22" viewBox="0 0 27 22" fill="none" xmlns="http://www.w3.org/2000/svg">
<path d="M9.75 1.57452C10.8894 1.2121 12.138 1 13.5 1C18.7274 1 22.285 4.12445 24.4064 6.88041C25.4688 8.26066 26 8.95078 26 11C26 13.0492 25.4688 13.7393 24.4064 15.1196C22.285 17.8756 18.7274 21 13.5 21C8.27264 21 4.71496 17.8756 2.59362 15.1196C1.53121 13.7393 1 13.0492 1 11C1 8.95078 1.53121 8.26066 2.59362 6.88041C3.19515 6.09893 3.91217 5.28782 4.75 4.52671" stroke="#1C274C" stroke-width="1.5" stroke-linecap="round"/>
<path d="M18 11C18 13.2091 15.9853 15 13.5 15C11.0147 15 9 13.2091 9 11C9 8.79086 11.0147 7 13.5 7C15.9853 7 18 8.79086 18 11Z" stroke="#1C274C" stroke-width="1.5"/>
<path d="M9.75 1.57452C10.8894 1.2121 12.138 1 13.5 1C18.7274 1 22.285 4.12445 24.4064 6.88041C25.4688 8.26066 26 8.95078 26 11C26 13.0492 25.4688 13.7393 24.4064 15.1196C22.285 17.8756 18.7274 21 13.5 21C8.27264 21 4.71496 17.8756 2.59362 15.1196C1.53121 13.7393 1 13.0492 1 11C1 8.95078 1.53121 8.26066 2.59362 6.88041C3.19515 6.09893 3.91217 5.28782 4.75 4.52671" stroke="#1C274C" stroke-width="1.5" stroke-linecap="round"/>
<path d="M18 11C18 13.2091 15.9853 15 13.5 15C11.0147 15 9 13.2091 9 11C9 8.79086 11.0147 7 13.5 7C15.9853 7 18 8.79086 18 11Z" stroke="#1C274C" stroke-width="1.5"/>
</svg>
