<svg width="18" height="21" viewBox="0 0 18 21" fill="none" xmlns="http://www.w3.org/2000/svg">
<path d="M16.8333 14.3864V9.64264C16.8333 5.56846 16.8333 3.53137 15.674 2.26569C14.5146 1 12.6486 1 8.91667 1C5.18471 1 3.31874 1 2.15937 2.26569C1 3.53137 1 5.56846 1 9.64264V14.3864C1 17.3281 1 18.799 1.64574 19.4417C1.95371 19.7482 2.34244 19.9408 2.75655 19.992C3.62483 20.0993 4.63879 19.1307 6.66671 17.1935C7.56311 16.3373 8.01131 15.9091 8.52987 15.7963C8.78523 15.7408 9.04811 15.7408 9.30346 15.7963C9.82202 15.9091 10.2702 16.3373 11.1666 17.1935C13.1945 19.1307 14.2085 20.0993 15.0768 19.992C15.4909 19.9408 15.8796 19.7482 16.1876 19.4417C16.8333 18.799 16.8333 17.3281 16.8333 14.3864Z" stroke="#1C274D"/>
</svg>
