<svg xmlns="http://www.w3.org/2000/svg" xmlns:xlink="http://www.w3.org/1999/xlink" width="500" zoomAndPan="magnify" viewBox="0 0 375 374.999991" height="500" preserveAspectRatio="xMidYMid meet" version="1.0"><defs><clipPath id="0c14d31531"><path d="M 81.730469 22.132812 L 181 22.132812 L 181 299 L 81.730469 299 Z M 81.730469 22.132812 " clip-rule="nonzero"/></clipPath><clipPath id="f258e2af10"><path d="M 194 76 L 293 76 L 293 352.882812 L 194 352.882812 Z M 194 76 " clip-rule="nonzero"/></clipPath><clipPath id="d5a292028c"><path d="M 326 32 L 344.230469 32 L 344.230469 51 L 326 51 Z M 326 32 " clip-rule="nonzero"/></clipPath></defs><g clip-path="url(#0c14d31531)"><path fill="#393536" d="M 81.8125 177.796875 L 81.8125 143.238281 C 88.816406 142.855469 94.09375 141.796875 97.648438 140.070312 C 101.195312 138.339844 104.269531 135.441406 106.859375 131.359375 C 109.453125 127.277344 111.226562 122.167969 112.1875 116.023438 C 112.953125 111.414062 113.339844 103.398438 113.339844 91.976562 C 113.339844 73.355469 114.203125 60.367188 115.929688 53.027344 C 117.660156 45.683594 120.777344 39.777344 125.289062 35.316406 C 129.800781 30.851562 136.375 27.324219 145.015625 24.734375 C 150.867188 23.003906 160.082031 22.140625 172.65625 22.140625 L 180.289062 22.140625 L 180.289062 56.558594 C 169.632812 56.558594 162.792969 57.15625 159.773438 58.355469 C 156.75 59.558594 154.515625 61.375 153.078125 63.824219 C 151.636719 66.273438 150.917969 70.472656 150.917969 76.425781 C 150.917969 82.472656 150.484375 93.945312 149.621094 110.839844 C 149.140625 120.339844 147.894531 128.046875 145.878906 133.949219 C 143.863281 139.851562 141.292969 144.726562 138.175781 148.5625 C 135.054688 152.402344 130.277344 156.390625 123.851562 160.515625 C 129.511719 163.78125 134.144531 167.597656 137.746094 171.964844 C 141.34375 176.332031 144.101562 181.632812 146.023438 187.875 C 147.941406 194.113281 149.191406 202.464844 149.765625 212.925781 C 150.4375 228.863281 150.773438 239.039062 150.773438 243.453125 C 150.773438 249.789062 151.539062 254.203125 153.078125 256.699219 C 154.613281 259.195312 156.9375 261.09375 160.058594 262.390625 C 163.175781 263.683594 169.921875 264.332031 180.289062 264.332031 L 180.289062 298.890625 L 172.65625 298.890625 C 159.699219 298.890625 149.765625 297.855469 142.855469 295.792969 C 135.941406 293.730469 130.113281 290.296875 125.363281 285.5 C 120.609375 280.699219 117.417969 274.769531 115.789062 267.714844 C 114.15625 260.660156 113.339844 249.546875 113.339844 234.382812 C 113.339844 216.722656 112.570312 205.25 111.035156 199.96875 C 108.925781 192.289062 105.734375 186.792969 101.460938 183.480469 C 97.191406 180.171875 90.640625 178.273438 81.8125 177.796875 " fill-opacity="1" fill-rule="nonzero"/></g><path fill="#f01e29" d="M 300.234375 93.832031 L 277.699219 93.832031 L 277.699219 71.296875 L 300.234375 71.296875 L 300.234375 93.832031 " fill-opacity="1" fill-rule="nonzero"/><path fill="#f01e29" d="M 294.914062 138.902344 L 277.699219 138.902344 L 277.699219 121.6875 L 294.914062 121.6875 L 294.914062 138.902344 " fill-opacity="1" fill-rule="nonzero"/><g clip-path="url(#f258e2af10)"><path fill="#f01e29" d="M 229.355469 111.050781 L 229.355469 93.832031 L 246.574219 93.832031 L 246.574219 111.050781 Z M 273.152344 191.554688 C 268.832031 188.242188 265.617188 182.75 263.503906 175.070312 C 262.34375 170.734375 261.652344 162.433594 261.425781 150.175781 L 246.574219 150.175781 L 246.574219 127.636719 L 261.097656 127.636719 C 260.738281 118.945312 259.980469 112.175781 258.824219 107.320312 C 257.144531 100.265625 253.953125 94.316406 249.25 89.46875 C 244.546875 84.621094 238.742188 81.1875 231.832031 79.171875 C 224.917969 77.15625 214.988281 76.148438 202.027344 76.148438 L 194.398438 76.148438 L 194.398438 110.5625 C 205.242188 110.5625 212.226562 111.207031 215.347656 112.503906 C 218.464844 113.800781 220.625 115.648438 221.824219 118.046875 C 223.023438 120.449219 223.671875 125.246094 223.769531 132.445312 C 224.246094 155.292969 225.015625 170.078125 226.070312 176.796875 C 227.699219 186.589844 230.773438 194.648438 235.285156 200.984375 C 238.546875 205.402344 243.730469 209.914062 250.835938 214.519531 C 245.363281 217.6875 240.875 221.359375 237.375 225.539062 C 233.867188 229.714844 231.0625 234.800781 228.949219 240.800781 C 226.839844 246.800781 225.542969 254.792969 225.0625 264.773438 C 224.296875 281.285156 223.886719 292.464844 223.84375 298.324219 C 223.789062 304.175781 223.023438 308.332031 221.535156 310.777344 C 220.046875 313.226562 217.722656 315.097656 214.554688 316.394531 C 211.386719 317.691406 204.664062 318.339844 194.398438 318.339844 L 194.398438 352.898438 L 202.027344 352.898438 C 214.601562 352.898438 223.816406 352.03125 229.667969 350.304688 C 238.40625 347.710938 245.023438 344.1875 249.542969 339.722656 C 254.050781 335.257812 257.144531 329.328125 258.824219 321.9375 C 260.503906 314.542969 261.347656 301.539062 261.347656 282.914062 C 261.347656 271.589844 261.726562 263.621094 262.496094 259.015625 C 263.550781 252.871094 265.351562 247.761719 267.894531 243.679688 C 270.4375 239.601562 273.484375 236.695312 277.039062 234.96875 C 280.585938 233.238281 285.871094 232.183594 292.875 231.800781 L 292.875 197.242188 C 284.042969 196.761719 277.46875 194.867188 273.152344 191.554688 " fill-opacity="1" fill-rule="nonzero"/></g><g clip-path="url(#d5a292028c)"><path fill="#f01e29" d="M 344.167969 50.0625 L 326.953125 50.0625 L 326.953125 32.84375 L 344.167969 32.84375 L 344.167969 50.0625 " fill-opacity="1" fill-rule="nonzero"/></g><path fill="#f01e29" d="M 257.839844 71.296875 L 225.703125 71.296875 L 225.703125 39.152344 L 257.839844 39.152344 L 257.839844 71.296875 " fill-opacity="1" fill-rule="nonzero"/></svg>