<svg width="16" height="16" viewBox="0 0 16 16" fill="none" xmlns="http://www.w3.org/2000/svg">
<path d="M11 9.63636V7.63901C11 5.92356 11 5.06584 10.5607 4.53292C10.1213 4 9.41421 4 8 4C6.58579 4 5.87868 4 5.43934 4.53292C5 5.06584 5 5.92356 5 7.63901V9.63636C5 10.875 5 11.4943 5.2447 11.7649C5.3614 11.894 5.50872 11.9751 5.66564 11.9966C5.99467 12.0418 6.37891 11.634 7.14739 10.8183C7.48707 10.4578 7.65692 10.2775 7.85343 10.23C7.95019 10.2066 8.04981 10.2066 8.14657 10.23C8.34308 10.2775 8.51293 10.4578 8.85261 10.8183C9.62109 11.634 10.0053 12.0418 10.3344 11.9966C10.4913 11.9751 10.6386 11.894 10.7553 11.7649C11 11.4943 11 10.875 11 9.63636Z" stroke="#F01E29"/>
<path d="M4.5 1.93648C5.52961 1.34088 6.725 1 8 1C11.866 1 15 4.13401 15 8C15 11.866 11.866 15 8 15C4.13401 15 1 11.866 1 8C1 6.72499 1.34088 5.52961 1.93648 4.5" stroke="#1C274C" stroke-linecap="round"/>
</svg>
