<svg width="20" height="20" viewBox="0 0 20 20" fill="none" xmlns="http://www.w3.org/2000/svg">
<path opacity="0.5" d="M10 20C15.5228 20 20 15.5228 20 10C20 4.47715 15.5228 0 10 0C4.47715 0 0 4.47715 0 10C0 15.5228 4.47715 20 10 20Z" fill="white"/>
<path d="M14 12.0455V9.54876C14 7.40445 14 6.3323 13.4142 5.66615C12.8284 5 11.8856 5 10 5C8.11438 5 7.17157 5 6.58579 5.66615C6 6.3323 6 7.40445 6 9.54876V12.0455C6 13.5937 6 14.3679 6.32627 14.7062C6.48187 14.8675 6.67829 14.9688 6.88752 14.9958C7.32623 15.0522 7.83855 14.5425 8.86318 13.5229C9.3161 13.0722 9.54256 12.8469 9.80457 12.7875C9.93359 12.7583 10.0664 12.7583 10.1954 12.7875C10.4574 12.8469 10.6839 13.0722 11.1368 13.5229L11.1368 13.5229C12.1615 14.5425 12.6738 15.0522 13.1125 14.9958C13.3217 14.9688 13.5181 14.8675 13.6737 14.7062C14 14.3679 14 13.5937 14 12.0455Z" fill="#F01E29"/>
</svg>
