<svg width="31" height="31" viewBox="0 0 31 31" fill="none" xmlns="http://www.w3.org/2000/svg">
<path d="M11.5752 24.4266L12.0396 23.8376L11.5752 24.4266ZM15.4997 7.10501L14.9593 7.62511C15.1007 7.77201 15.2958 7.85501 15.4997 7.85501C15.7036 7.85501 15.8987 7.77201 16.04 7.62511L15.4997 7.10501ZM19.4241 24.4266L19.8884 25.0156L19.4241 24.4266ZM8.90312 21.3793C8.58329 21.116 8.11064 21.1619 7.84742 21.4818C7.5842 21.8016 7.63009 22.2742 7.94992 22.5375L8.90312 21.3793ZM3.21666 17.2182C3.41542 17.5816 3.87115 17.7151 4.23456 17.5163C4.59797 17.3176 4.73145 16.8619 4.53269 16.4984L3.21666 17.2182ZM3.33301 11.8021C3.33301 8.94207 4.94943 6.5323 7.17353 5.51566C9.35035 4.52063 12.2451 4.80516 14.9593 7.62511L16.04 6.58491C12.9419 3.36611 9.37837 2.85854 6.54993 4.15143C3.76877 5.42271 1.83301 8.38087 1.83301 11.8021H3.33301ZM11.1109 25.0156C11.7746 25.5387 12.4731 26.0852 13.1776 26.4969C13.8819 26.9084 14.6634 27.2292 15.4997 27.2292V25.7292C15.0442 25.7292 14.5341 25.5523 13.9344 25.2018C13.3349 24.8515 12.717 24.3716 12.0396 23.8376L11.1109 25.0156ZM19.8884 25.0156C21.7442 23.5527 24.0753 21.906 25.9062 19.8444C27.7628 17.7538 29.1663 15.1768 29.1663 11.8021H27.6663C27.6663 14.7087 26.474 16.946 24.7846 18.8483C23.0695 20.7796 20.9045 22.3045 18.9598 23.8376L19.8884 25.0156ZM29.1663 11.8021C29.1663 8.38087 27.2306 5.42271 24.4494 4.15143C21.621 2.85854 18.0574 3.36611 14.9593 6.58491L16.04 7.62511C18.7542 4.80516 21.649 4.52063 23.8258 5.51566C26.0499 6.5323 27.6663 8.94207 27.6663 11.8021H29.1663ZM18.9598 23.8376C18.2823 24.3716 17.6645 24.8515 17.065 25.2018C16.4652 25.5523 15.9551 25.7292 15.4997 25.7292V27.2292C16.3359 27.2292 17.1175 26.9084 17.8217 26.4969C18.5263 26.0852 19.2248 25.5387 19.8884 25.0156L18.9598 23.8376ZM12.0396 23.8376C11.0193 23.0333 9.96457 22.2529 8.90312 21.3793L7.94992 22.5375C9.02095 23.4189 10.1438 24.2532 11.1109 25.0156L12.0396 23.8376ZM4.53269 16.4984C3.79163 15.1435 3.33301 13.6063 3.33301 11.8021H1.83301C1.83301 13.8777 2.36477 15.6606 3.21666 17.2182L4.53269 16.4984Z" fill="#1C274C"/>
</svg>
