<svg width="52" height="57" viewBox="0 0 52 57" fill="none" xmlns="http://www.w3.org/2000/svg">
<path d="M0.651997 1.88693L4.41631 49.2143C4.47282 49.9249 4.96232 50.531 5.65381 50.7464L25.4617 56.9182C25.812 57.0273 26.1881 57.0273 26.5384 56.9182L46.3463 50.7464C47.0378 50.531 47.5272 49.9249 47.5838 49.2143L51.3481 1.88693C51.429 0.869415 50.6108 0 49.5723 0H2.42788C1.38944 0 0.571172 0.869415 0.651997 1.88693ZM41.6947 16.571H17.162L17.9024 23.2807H41.1612L39.6396 42.409L26.0001 46.6588L12.3606 42.409L11.5657 32.4156H18.7248V37.3175L26.1914 39.2869L33.6134 37.3175L34.1892 29.5052H11.3341L9.81677 10.4271H42.1833L41.6947 16.571Z" fill="#FC490B"/>
</svg>