<svg width="13" height="14" viewBox="0 0 13 14" fill="none" xmlns="http://www.w3.org/2000/svg">
<path d="M12.1574 9.62446L12.6334 6.87187C12.7523 6.18437 12.2236 5.55556 11.5267 5.55556H8.03103C7.68458 5.55556 7.42075 5.24458 7.47683 4.9023L7.92393 2.17347C7.99657 1.73015 7.97582 1.27652 7.86303 0.841696C7.76959 0.481488 7.49167 0.192254 7.12618 0.0748403L7.02838 0.0434193C6.80749 -0.0275412 6.5664 -0.0110286 6.35814 0.0893247C6.12891 0.199784 5.96121 0.401263 5.89905 0.640883L5.57809 1.87817C5.47597 2.27185 5.32722 2.65185 5.13543 3.01089C4.85519 3.53551 4.42191 3.95536 3.97153 4.34347L3.00083 5.17994C2.72713 5.41579 2.5834 5.769 2.61454 6.12918L3.16251 12.4663C3.21277 13.0476 3.69875 13.4939 4.28153 13.4939H7.41792C9.76673 13.4939 11.7713 11.8573 12.1574 9.62446Z" fill="white"/>
<path opacity="0.5" fill-rule="evenodd" clip-rule="evenodd" d="M0.484203 5.05028C0.754933 5.0386 0.986814 5.24227 1.01016 5.51224L1.66569 13.0934C1.7078 13.5804 1.32421 14.0002 0.834396 14.0002C0.373031 14.0002 0 13.6259 0 13.1654V5.55583C0 5.28485 0.213473 5.06197 0.484203 5.05028Z" fill="white"/>
</svg>
