<svg width="23" height="23" viewBox="0 0 23 23" fill="none" xmlns="http://www.w3.org/2000/svg">
<path d="M11.4824 9.401L16.6614 10.76" stroke="#1C274C" stroke-linecap="round"/>
<path d="M10.6514 12.4438L13.7588 13.2592" stroke="#1C274C" stroke-linecap="round"/>
<path d="M20.636 12.1809C19.988 14.549 19.664 15.7331 18.9295 16.501C18.3496 17.1074 17.5991 17.5317 16.7729 17.7203C16.6697 17.7439 16.5648 17.7621 16.4574 17.775C15.4762 17.8936 14.2788 17.5794 12.0992 17.0075C9.68098 16.3729 8.47186 16.0557 7.68767 15.3364C7.06849 14.7685 6.63518 14.0335 6.44253 13.2245C6.19856 12.1998 6.52254 11.0157 7.1705 8.64762L7.72558 6.61895C7.81877 6.27838 7.90526 5.9623 7.98723 5.66842C8.47522 3.91888 8.80315 2.95635 9.432 2.29886C10.0119 1.6925 10.7624 1.26817 11.5886 1.07952C12.635 0.840602 13.8441 1.15787 16.2623 1.7924C18.6806 2.42693 19.8897 2.7442 20.6739 3.46345C21.2931 4.03136 21.7264 4.76632 21.919 5.5754C22.0915 6.30004 21.98 7.10438 21.6708 8.35083" stroke="#1C274C" stroke-linecap="round"/>
<path d="M2.36426 16.381C3.01222 18.7492 3.3362 19.9332 4.07067 20.7011C4.6506 21.3075 5.40112 21.7318 6.22732 21.9205C7.27368 22.1594 8.48279 21.8421 10.901 21.2076C13.3192 20.5731 14.5283 20.2558 15.3125 19.5365C15.8411 19.0517 16.2343 18.4452 16.4578 17.7747M7.98762 5.66809C7.60959 5.76381 7.19537 5.8725 6.73787 5.99254C4.31965 6.62707 3.11054 6.94434 2.32635 7.66359C1.70716 8.2315 1.27385 8.96647 1.08121 9.77554C0.908654 10.5002 1.02019 11.3047 1.32951 12.5513" stroke="#1C274C" stroke-linecap="round" stroke-linejoin="round"/>
</svg>
