<svg width="11" height="12" viewBox="0 0 11 12" fill="none" xmlns="http://www.w3.org/2000/svg">
<path d="M10.3213 8.17075L10.7255 5.83393C10.8264 5.25027 10.3776 4.71643 9.78589 4.71643H6.81823C6.52411 4.71643 6.30013 4.45242 6.34774 4.16185L6.72731 1.84518C6.78897 1.46882 6.77136 1.08371 6.6756 0.714564C6.59628 0.408763 6.36034 0.163215 6.05006 0.0635362L5.96702 0.0368611C5.7795 -0.0233813 5.57482 -0.00936278 5.39802 0.0758328C5.20341 0.169608 5.06104 0.340655 5.00827 0.544082L4.73579 1.59449C4.6491 1.9287 4.52281 2.2513 4.35999 2.55612C4.12208 3.00149 3.75425 3.35793 3.37189 3.68741L2.54781 4.39755C2.31545 4.59777 2.19343 4.89763 2.21987 5.20341L2.68506 10.5834C2.72773 11.0769 3.14031 11.4557 3.63507 11.4557H6.29773C8.29176 11.4557 9.99353 10.0663 10.3213 8.17075Z" fill="black"/>
<path opacity="0.5" fill-rule="evenodd" clip-rule="evenodd" d="M0.41119 4.28733C0.641028 4.27741 0.837885 4.45032 0.857703 4.67951L1.41422 11.1156C1.44997 11.5291 1.12432 11.8854 0.708489 11.8854C0.316809 11.8854 0.00012207 11.5676 0.00012207 11.1767V4.71652C0.00012207 4.48647 0.181352 4.29725 0.41119 4.28733Z" fill="black"/>
</svg>
