<svg xmlns="http://www.w3.org/2000/svg" xmlns:xlink="http://www.w3.org/1999/xlink" width="500" zoomAndPan="magnify" viewBox="0 0 375 74.999997" height="100" preserveAspectRatio="xMidYMid meet" version="1.0"><defs><g/><clipPath id="fbb81a23db"><path d="M 9.449219 12.675781 L 30 12.675781 L 30 69 L 9.449219 69 Z M 9.449219 12.675781 " clip-rule="nonzero"/></clipPath><clipPath id="708d996913"><path d="M 337 15 L 358 15 L 358 69.652344 L 337 69.652344 Z M 337 15 " clip-rule="nonzero"/></clipPath><clipPath id="a7ae96c3ba"><path d="M 364 6 L 367.308594 6 L 367.308594 10 L 364 10 Z M 364 6 " clip-rule="nonzero"/></clipPath></defs><g clip-path="url(#fbb81a23db)"><path fill="#393536" d="M 9.460938 44.089844 L 9.460938 37.117188 C 10.882812 37.039062 11.953125 36.824219 12.675781 36.476562 C 13.394531 36.125 14.019531 35.542969 14.542969 34.71875 C 15.070312 33.894531 15.429688 32.863281 15.625 31.625 C 15.78125 30.691406 15.859375 29.074219 15.859375 26.769531 C 15.859375 23.011719 16.035156 20.390625 16.386719 18.910156 C 16.734375 17.429688 17.367188 16.234375 18.285156 15.335938 C 19.199219 14.433594 20.53125 13.722656 22.285156 13.199219 C 23.472656 12.851562 25.34375 12.675781 27.894531 12.675781 L 29.441406 12.675781 L 29.441406 19.621094 C 27.28125 19.621094 25.890625 19.742188 25.28125 19.984375 C 24.664062 20.226562 24.214844 20.59375 23.921875 21.089844 C 23.628906 21.582031 23.484375 22.429688 23.484375 23.632812 C 23.484375 24.851562 23.394531 27.167969 23.21875 30.578125 C 23.121094 32.496094 22.871094 34.050781 22.460938 35.242188 C 22.050781 36.433594 21.53125 37.414062 20.898438 38.191406 C 20.265625 38.964844 19.296875 39.769531 17.992188 40.601562 C 19.140625 41.261719 20.078125 42.03125 20.808594 42.914062 C 21.539062 43.792969 22.101562 44.863281 22.488281 46.125 C 22.878906 47.382812 23.132812 49.070312 23.25 51.179688 C 23.386719 54.394531 23.453125 56.449219 23.453125 57.339844 C 23.453125 58.617188 23.609375 59.507812 23.921875 60.015625 C 24.230469 60.515625 24.703125 60.902344 25.335938 61.160156 C 25.96875 61.421875 27.339844 61.554688 29.441406 61.554688 L 29.441406 68.527344 L 27.894531 68.527344 C 25.265625 68.527344 23.25 68.320312 21.847656 67.902344 C 20.445312 67.488281 19.261719 66.792969 18.296875 65.824219 C 17.335938 64.855469 16.6875 63.660156 16.355469 62.238281 C 16.023438 60.8125 15.859375 58.570312 15.859375 55.511719 C 15.859375 51.945312 15.703125 49.628906 15.390625 48.566406 C 14.964844 47.015625 14.316406 45.90625 13.449219 45.238281 C 12.582031 44.570312 11.253906 44.1875 9.460938 44.089844 " fill-opacity="1" fill-rule="nonzero"/></g><g fill="#393536" fill-opacity="1"><g transform="translate(36.980044, 53.081157)"><g><path d="M 3.046875 -27.21875 L 8.984375 -27.21875 L 8.984375 -14.984375 L 17.421875 -27.21875 L 24.25 -27.21875 L 15.109375 -14.265625 L 24.78125 0 L 17.671875 0 L 8.984375 -12.875 L 8.984375 0 L 3.046875 0 Z M 3.046875 -27.21875 "/></g></g></g><g fill="#393536" fill-opacity="1"><g transform="translate(69.15724, 53.081157)"><g><path d="M 1.625 -13.078125 L 11.171875 -13.078125 L 11.171875 -8.046875 L 1.625 -8.046875 Z M 1.625 -13.078125 "/></g></g></g><g fill="#393536" fill-opacity="1"><g transform="translate(89.552702, 53.081157)"><g><path d="M 1.625 -3.09375 L 14.875 -21.65625 L 2.078125 -21.65625 L 2.078125 -27.21875 L 23.890625 -27.21875 L 23.890625 -24.09375 L 10.640625 -5.5625 L 24.015625 -5.5625 L 24.015625 0 L 1.625 0 Z M 1.625 -3.09375 "/></g></g></g><g fill="#393536" fill-opacity="1"><g transform="translate(122.786189, 53.081157)"><g><path d="M 3.046875 -27.21875 L 18.609375 -27.21875 L 18.609375 -21.65625 L 8.984375 -21.65625 L 8.984375 -16.65625 L 16 -16.65625 L 16 -11.09375 L 8.984375 -11.09375 L 8.984375 -5.5625 L 18.8125 -5.5625 L 18.8125 0 L 3.046875 0 Z M 3.046875 -27.21875 "/></g></g></g><g fill="#393536" fill-opacity="1"><g transform="translate(151.225737, 53.081157)"><g><path d="M 3.046875 -27.21875 L 8.984375 -27.21875 L 8.984375 -5.5625 L 18.40625 -5.5625 L 18.40625 0 L 3.046875 0 Z M 3.046875 -27.21875 "/></g></g></g><g fill="#393536" fill-opacity="1"><g transform="translate(178.446482, 53.081157)"><g/></g></g><g fill="#393536" fill-opacity="1"><g transform="translate(194.982413, 53.081157)"><g><path d="M 15.5625 0.5625 C 13.53125 0.5625 11.644531 0.210938 9.90625 -0.484375 C 8.175781 -1.191406 6.679688 -2.175781 5.421875 -3.4375 C 4.160156 -4.695312 3.175781 -6.191406 2.46875 -7.921875 C 1.769531 -9.648438 1.421875 -11.53125 1.421875 -13.5625 C 1.421875 -15.59375 1.78125 -17.472656 2.5 -19.203125 C 3.21875 -20.941406 4.207031 -22.445312 5.46875 -23.71875 C 6.726562 -25 8.21875 -25.992188 9.9375 -26.703125 C 11.65625 -27.421875 13.515625 -27.78125 15.515625 -27.78125 C 17.628906 -27.78125 19.59375 -27.375 21.40625 -26.5625 C 23.21875 -25.75 24.789062 -24.585938 26.125 -23.078125 L 21.984375 -19.046875 C 21.191406 -19.972656 20.257812 -20.695312 19.1875 -21.21875 C 18.125 -21.75 16.957031 -22.015625 15.6875 -22.015625 C 14.519531 -22.015625 13.445312 -21.804688 12.46875 -21.390625 C 11.5 -20.972656 10.65625 -20.390625 9.9375 -19.640625 C 9.21875 -18.898438 8.660156 -18.015625 8.265625 -16.984375 C 7.867188 -15.953125 7.671875 -14.84375 7.671875 -13.65625 C 7.671875 -12.4375 7.875 -11.3125 8.28125 -10.28125 C 8.6875 -9.25 9.25 -8.351562 9.96875 -7.59375 C 10.6875 -6.832031 11.546875 -6.242188 12.546875 -5.828125 C 13.554688 -5.410156 14.65625 -5.203125 15.84375 -5.203125 C 17.144531 -5.203125 18.335938 -5.472656 19.421875 -6.015625 C 20.503906 -6.554688 21.425781 -7.285156 22.1875 -8.203125 L 26.328125 -4.265625 C 25.023438 -2.722656 23.457031 -1.53125 21.625 -0.6875 C 19.800781 0.144531 17.78125 0.5625 15.5625 0.5625 Z M 15.5625 0.5625 "/></g></g></g><g fill="#393536" fill-opacity="1"><g transform="translate(229.7191, 53.081157)"><g><path d="M 15.484375 0.5625 C 13.472656 0.5625 11.613281 0.195312 9.90625 -0.53125 C 8.207031 -1.257812 6.726562 -2.257812 5.46875 -3.53125 C 4.207031 -4.800781 3.21875 -6.296875 2.5 -8.015625 C 1.78125 -9.742188 1.421875 -11.609375 1.421875 -13.609375 C 1.421875 -15.609375 1.78125 -17.472656 2.5 -19.203125 C 3.21875 -20.941406 4.207031 -22.445312 5.46875 -23.71875 C 6.726562 -25 8.207031 -25.992188 9.90625 -26.703125 C 11.613281 -27.421875 13.472656 -27.78125 15.484375 -27.78125 C 17.453125 -27.78125 19.296875 -27.421875 21.015625 -26.703125 C 22.742188 -25.992188 24.234375 -25 25.484375 -23.71875 C 26.742188 -22.445312 27.734375 -20.941406 28.453125 -19.203125 C 29.171875 -17.472656 29.53125 -15.609375 29.53125 -13.609375 C 29.53125 -11.609375 29.171875 -9.742188 28.453125 -8.015625 C 27.734375 -6.296875 26.742188 -4.800781 25.484375 -3.53125 C 24.234375 -2.257812 22.742188 -1.257812 21.015625 -0.53125 C 19.296875 0.195312 17.453125 0.5625 15.484375 0.5625 Z M 15.484375 -5.203125 C 16.617188 -5.203125 17.660156 -5.410156 18.609375 -5.828125 C 19.554688 -6.242188 20.375 -6.832031 21.0625 -7.59375 C 21.75 -8.351562 22.289062 -9.25 22.6875 -10.28125 C 23.082031 -11.3125 23.28125 -12.421875 23.28125 -13.609375 C 23.28125 -14.796875 23.082031 -15.90625 22.6875 -16.9375 C 22.289062 -17.96875 21.75 -18.851562 21.0625 -19.59375 C 20.375 -20.34375 19.554688 -20.929688 18.609375 -21.359375 C 17.660156 -21.796875 16.617188 -22.015625 15.484375 -22.015625 C 14.335938 -22.015625 13.289062 -21.796875 12.34375 -21.359375 C 11.394531 -20.929688 10.578125 -20.34375 9.890625 -19.59375 C 9.203125 -18.851562 8.660156 -17.96875 8.265625 -16.9375 C 7.867188 -15.90625 7.671875 -14.796875 7.671875 -13.609375 C 7.671875 -12.421875 7.867188 -11.3125 8.265625 -10.28125 C 8.660156 -9.25 9.203125 -8.359375 9.890625 -7.609375 C 10.578125 -6.867188 11.394531 -6.28125 12.34375 -5.84375 C 13.289062 -5.414062 14.335938 -5.203125 15.484375 -5.203125 Z M 15.484375 -5.203125 "/></g></g></g><g fill="#393536" fill-opacity="1"><g transform="translate(268.274685, 53.081157)"><g><path d="M 3.046875 -27.21875 L 13.8125 -27.21875 C 15.84375 -27.21875 17.71875 -26.867188 19.4375 -26.171875 C 21.15625 -25.484375 22.644531 -24.535156 23.90625 -23.328125 C 25.164062 -22.128906 26.15625 -20.695312 26.875 -19.03125 C 27.59375 -17.363281 27.953125 -15.554688 27.953125 -13.609375 C 27.953125 -11.660156 27.59375 -9.859375 26.875 -8.203125 C 26.15625 -6.554688 25.164062 -5.125 23.90625 -3.90625 C 22.644531 -2.6875 21.15625 -1.726562 19.4375 -1.03125 C 17.71875 -0.34375 15.84375 0 13.8125 0 L 3.046875 0 Z M 13.859375 -5.5625 C 14.992188 -5.5625 16.035156 -5.765625 16.984375 -6.171875 C 17.929688 -6.578125 18.753906 -7.140625 19.453125 -7.859375 C 20.160156 -8.578125 20.707031 -9.421875 21.09375 -10.390625 C 21.488281 -11.367188 21.6875 -12.441406 21.6875 -13.609375 C 21.6875 -14.773438 21.488281 -15.84375 21.09375 -16.8125 C 20.707031 -17.789062 20.160156 -18.640625 19.453125 -19.359375 C 18.753906 -20.078125 17.929688 -20.640625 16.984375 -21.046875 C 16.035156 -21.453125 14.992188 -21.65625 13.859375 -21.65625 L 8.984375 -21.65625 L 8.984375 -5.5625 Z M 13.859375 -5.5625 "/></g></g></g><g fill="#393536" fill-opacity="1"><g transform="translate(305.245835, 53.081157)"><g><path d="M 3.046875 -27.21875 L 18.609375 -27.21875 L 18.609375 -21.65625 L 8.984375 -21.65625 L 8.984375 -16.65625 L 16 -16.65625 L 16 -11.09375 L 8.984375 -11.09375 L 8.984375 -5.5625 L 18.8125 -5.5625 L 18.8125 0 L 3.046875 0 Z M 3.046875 -27.21875 "/></g></g></g><path fill="#f01e29" d="M 358.765625 18.546875 L 354.320312 18.546875 L 354.320312 14.097656 L 358.765625 14.097656 L 358.765625 18.546875 " fill-opacity="1" fill-rule="nonzero"/><path fill="#f01e29" d="M 357.714844 27.4375 L 354.320312 27.4375 L 354.320312 24.039062 L 357.714844 24.039062 L 357.714844 27.4375 " fill-opacity="1" fill-rule="nonzero"/><g clip-path="url(#708d996913)"><path fill="#f01e29" d="M 344.792969 21.941406 L 344.792969 18.546875 L 348.1875 18.546875 L 348.1875 21.941406 Z M 353.425781 37.824219 C 352.574219 37.171875 351.941406 36.085938 351.523438 34.570312 C 351.292969 33.71875 351.160156 32.078125 351.113281 29.660156 L 348.1875 29.660156 L 348.1875 25.214844 L 351.050781 25.214844 C 350.976562 23.5 350.828125 22.164062 350.601562 21.207031 C 350.269531 19.816406 349.640625 18.640625 348.714844 17.683594 C 347.785156 16.730469 346.640625 16.050781 345.277344 15.652344 C 343.917969 15.253906 341.957031 15.058594 339.402344 15.058594 L 337.898438 15.058594 L 337.898438 21.847656 C 340.039062 21.847656 341.414062 21.972656 342.027344 22.230469 C 342.644531 22.484375 343.070312 22.851562 343.304688 23.324219 C 343.542969 23.796875 343.671875 24.742188 343.691406 26.164062 C 343.785156 30.671875 343.933594 33.585938 344.144531 34.914062 C 344.464844 36.84375 345.070312 38.433594 345.960938 39.683594 C 346.601562 40.554688 347.625 41.445312 349.027344 42.355469 C 347.945312 42.980469 347.0625 43.703125 346.371094 44.527344 C 345.679688 45.351562 345.128906 46.355469 344.710938 47.539062 C 344.296875 48.722656 344.039062 50.300781 343.945312 52.269531 C 343.792969 55.527344 343.714844 57.730469 343.703125 58.886719 C 343.695312 60.042969 343.542969 60.863281 343.25 61.34375 C 342.957031 61.828125 342.496094 62.195312 341.871094 62.453125 C 341.25 62.707031 339.921875 62.835938 337.898438 62.835938 L 337.898438 69.652344 L 339.402344 69.652344 C 341.882812 69.652344 343.699219 69.484375 344.851562 69.140625 C 346.574219 68.628906 347.878906 67.933594 348.769531 67.054688 C 349.660156 66.171875 350.269531 65.003906 350.601562 63.546875 C 350.933594 62.085938 351.097656 59.523438 351.097656 55.847656 C 351.097656 53.613281 351.171875 52.042969 351.324219 51.132812 C 351.53125 49.921875 351.886719 48.914062 352.390625 48.105469 C 352.890625 47.300781 353.492188 46.730469 354.191406 46.390625 C 354.890625 46.046875 355.933594 45.839844 357.3125 45.765625 L 357.3125 38.945312 C 355.574219 38.851562 354.277344 38.476562 353.425781 37.824219 " fill-opacity="1" fill-rule="nonzero"/></g><g clip-path="url(#a7ae96c3ba)"><path fill="#f01e29" d="M 367.425781 9.910156 L 364.03125 9.910156 L 364.03125 6.511719 L 367.425781 6.511719 L 367.425781 9.910156 " fill-opacity="1" fill-rule="nonzero"/></g><path fill="#f01e29" d="M 350.40625 14.097656 L 344.070312 14.097656 L 344.070312 7.757812 L 350.40625 7.757812 L 350.40625 14.097656 " fill-opacity="1" fill-rule="nonzero"/></svg>