<svg width="20" height="21" viewBox="0 0 20 21" fill="none" xmlns="http://www.w3.org/2000/svg">
<circle cx="9.95645" cy="10.5" r="2.85" stroke="#1C274C"/>
<path d="M2.03497 9.20721C2.48389 9.48927 2.77274 9.96977 2.77274 10.4999C2.77273 11.0301 2.48388 11.5106 2.03497 11.7927C1.72949 11.9846 1.53267 12.138 1.39264 12.3205C1.08587 12.7203 0.950489 13.2256 1.01626 13.7252C1.06559 14.0999 1.28691 14.4832 1.72956 15.2499C2.1722 16.0166 2.39353 16.3999 2.69336 16.63C3.09314 16.9367 3.59841 17.0721 4.09801 17.0064C4.32604 16.9763 4.55728 16.8826 4.87617 16.7141C5.34498 16.4663 5.90562 16.4564 6.36482 16.7216C6.82397 16.9867 7.09567 17.4771 7.11548 18.0069C7.12896 18.3674 7.16341 18.6146 7.25144 18.8271C7.44428 19.2927 7.81416 19.6625 8.27971 19.8554C8.62888 20 9.07152 20 9.95681 20C10.8421 20 11.2847 20 11.6339 19.8554C12.0995 19.6625 12.4693 19.2927 12.6622 18.8271C12.7502 18.6146 12.7847 18.3674 12.7981 18.007C12.818 17.4771 13.0897 16.9867 13.5488 16.7216C14.008 16.4565 14.5686 16.4664 15.0374 16.7141C15.3563 16.8827 15.5876 16.9764 15.8156 17.0065C16.3152 17.0722 16.8205 16.9369 17.2203 16.6301C17.5201 16.4 17.7414 16.0167 18.1841 15.25C18.3811 14.9087 18.5343 14.6433 18.648 14.4209M17.8786 11.7928C17.4297 11.5107 17.1409 11.0302 17.1408 10.5001C17.1408 9.96986 17.4297 9.48931 17.8786 9.20721C18.1841 9.0153 18.3808 8.8619 18.5209 8.67942C18.8276 8.27964 18.963 7.77437 18.8972 7.27477C18.8479 6.90007 18.6266 6.51673 18.184 5.75005C17.7413 4.98336 17.52 4.60002 17.2201 4.36995C16.8204 4.06319 16.3151 3.92781 15.8155 3.99358C15.5875 4.0236 15.3562 4.11733 15.0373 4.28589C14.5685 4.53365 14.0079 4.54354 13.5487 4.27841C13.0896 4.01331 12.818 3.52291 12.7981 2.99313C12.7847 2.63259 12.7502 2.38543 12.6622 2.1729C12.4693 1.70735 12.0995 1.33747 11.6339 1.14463C11.2847 0.999999 10.8421 0.999999 9.95681 1C9.07152 1 8.62888 1 8.27971 1.14463C7.81416 1.33747 7.44428 1.70735 7.25144 2.1729C7.16341 2.38541 7.12896 2.63255 7.11548 2.99304C7.09566 3.52288 6.82395 4.01331 6.36478 4.27841C5.9056 4.54352 5.34502 4.53361 4.87626 4.28586C4.55733 4.11729 4.32607 4.02355 4.09802 3.99353C3.59842 3.92776 3.09315 4.06314 2.69337 4.3699C2.39354 4.59998 2.17221 4.98332 1.72957 5.75C1.53251 6.09132 1.37931 6.35667 1.26563 6.5791" stroke="#1C274C" stroke-linecap="round"/>
</svg>
