<svg width="20" height="20" viewBox="0 0 20 20" fill="none" xmlns="http://www.w3.org/2000/svg">
<path fill-rule="evenodd" clip-rule="evenodd" d="M3.13253 8.48637V6.50602C3.13253 2.91285 6.04538 0 9.63855 0C13.2317 0 16.1446 2.91285 16.1446 6.50602V8.48637C17.219 8.56662 17.9187 8.7692 18.4302 9.28065C19.2771 10.1276 19.2771 11.4907 19.2771 14.2169C19.2771 16.9431 19.2771 18.3062 18.4302 19.1531C17.5833 20 16.2202 20 13.494 20H5.78313C3.05694 20 1.69384 20 0.84692 19.1531C0 18.3062 0 16.9431 0 14.2169C0 11.4907 0 10.1276 0.84692 9.28065C1.35837 8.7692 2.05807 8.56662 3.13253 8.48637ZM4.57831 6.50602C4.57831 3.71133 6.84386 1.44578 9.63855 1.44578C12.4332 1.44578 14.6988 3.71133 14.6988 6.50602V8.43718C14.3296 8.43374 13.9292 8.43374 13.494 8.43374H5.78313C5.34794 8.43374 4.94748 8.43374 4.57831 8.43718V6.50602Z" fill="#8A8A8A"/>
</svg>
