<svg width="12" height="14" viewBox="0 0 12 14" fill="none" xmlns="http://www.w3.org/2000/svg">
<path d="M10.6 9.45454V6.45851C10.6 3.88534 10.6 2.59876 9.89706 1.79938C9.19411 1 8.06274 1 5.8 1C3.53726 1 2.40589 1 1.70294 1.79938C1 2.59876 1 3.88534 1 6.45851V9.45454C1 11.3125 1 12.2415 1.39152 12.6474C1.57825 12.841 1.81395 12.9626 2.06502 12.9949C2.59148 13.0627 3.20626 12.451 4.43582 11.2275C4.97932 10.6867 5.25107 10.4163 5.56548 10.345C5.72031 10.31 5.8797 10.31 6.03452 10.345C6.34893 10.4163 6.62068 10.6867 7.16418 11.2275C8.39374 12.451 9.00852 13.0627 9.53498 12.9949C9.78606 12.9626 10.0218 12.841 10.2085 12.6474C10.6 12.2415 10.6 11.3125 10.6 9.45454Z" stroke="#1C274D"/>
</svg>
