<svg width="22" height="22" viewBox="0 0 22 22" fill="none" xmlns="http://www.w3.org/2000/svg">
<path d="M5 9V7C5 6.65929 5.0284 6.32521 5.08296 6M17 9V7C17 3.68629 14.3137 1 11 1C9.20796 1 7.59942 1.78563 6.5 3.03126" stroke="#8A8A8A" stroke-linecap="round"/>
<path d="M10 21H7C4.17157 21 2.75736 21 1.87868 20.1213C1 19.2426 1 17.8284 1 15C1 12.1716 1 10.7574 1.87868 9.87868C2.75736 9 4.17157 9 7 9H15C17.8284 9 19.2426 9 20.1213 9.87868C21 10.7574 21 12.1716 21 15C21 17.8284 21 19.2426 20.1213 20.1213C19.2426 21 17.8284 21 15 21H14" stroke="#8A8A8A" stroke-linecap="round"/>
</svg>
