<svg width="348" height="34" viewBox="0 0 348 34" fill="none" xmlns="http://www.w3.org/2000/svg">
<path d="M0 0.674805H7.26945V15.3507L17.5997 0.674805H25.9596L14.7685 16.2128L26.61 33.3253H17.9058L7.26945 17.881V33.3253H0V0.674805Z" fill="#393536"/>
<path d="M37.6547 17.6373H49.3432V23.6725H37.6547V17.6373Z" fill="#393536"/>
<path d="M62.6254 29.6142L78.8477 7.34735H63.1801V0.674805H89.8858V4.42343L73.6635 26.6528H90.0389V33.3253H62.6254V29.6142Z" fill="#393536"/>
<path d="M105.055 0.674805H124.109V7.34735H112.324V13.3451H120.914V20.0177H112.324V26.6528H124.357V33.3253H105.055V0.674805Z" fill="#393536"/>
<path d="M139.874 0.674805H147.144V26.6528H158.679V33.3253H139.874V0.674805Z" fill="#393536"/>
<path d="M208.77 34C206.283 34 203.973 33.5783 201.845 32.7442C199.726 31.8961 197.895 30.7153 196.355 29.2018C194.81 27.6929 193.605 25.8983 192.739 23.8225C191.883 21.7514 191.457 19.4928 191.457 17.0562C191.457 14.6196 191.897 12.3658 192.777 10.29C193.657 8.2048 194.867 6.40077 196.412 4.87321C197.952 3.33627 199.779 2.14609 201.883 1.29327C203.988 0.431092 206.264 0 208.713 0C211.3 0 213.706 0.487321 215.925 1.46196C218.144 2.4366 220.066 3.83297 221.702 5.64168L216.633 10.4774C215.662 9.36687 214.519 8.5 213.208 7.87211C211.907 7.23484 210.477 6.91621 208.923 6.91621C207.493 6.91621 206.178 7.16924 204.982 7.66593C203.796 8.16731 202.763 8.86549 201.883 9.76516C201.003 10.6555 200.319 11.7144 199.836 12.9515C199.348 14.1885 199.109 15.5193 199.109 16.9438C199.109 18.4057 199.358 19.7552 199.855 20.9923C200.353 22.2293 201.041 23.3071 201.921 24.2161C202.801 25.1298 203.854 25.8374 205.078 26.3341C206.312 26.8354 207.661 27.0838 209.114 27.0838C210.707 27.0838 212.166 26.7605 213.495 26.1092C214.82 25.4625 215.949 24.5863 216.881 23.4851L221.951 28.2084C220.353 30.0593 218.436 31.4884 216.193 32.5006C213.959 33.4986 211.487 34 208.77 34Z" fill="#393536"/>
<path d="M251.204 34C248.741 34 246.464 33.5595 244.374 32.688C242.294 31.8164 240.481 30.6169 238.941 29.0893C237.396 27.5664 236.186 25.7718 235.306 23.71C234.426 21.6389 233.986 19.3991 233.986 17C233.986 14.6009 234.426 12.3658 235.306 10.29C236.186 8.2048 237.396 6.40077 238.941 4.87321C240.481 3.33627 242.294 2.14609 244.374 1.29327C246.464 0.431092 248.741 0 251.204 0C253.614 0 255.871 0.431092 257.976 1.29327C260.09 2.14609 261.916 3.33627 263.447 4.87321C264.987 6.40077 266.202 8.2048 267.082 10.29C267.962 12.3658 268.402 14.6009 268.402 17C268.402 19.3991 267.962 21.6389 267.082 23.71C266.202 25.7718 264.987 27.5664 263.447 29.0893C261.916 30.6169 260.09 31.8164 257.976 32.688C255.871 33.5595 253.614 34 251.204 34ZM251.204 27.0838C252.59 27.0838 253.867 26.8354 255.03 26.3341C256.187 25.8374 257.191 25.1298 258.033 24.2161C258.875 23.3071 259.535 22.2293 260.023 20.9923C260.506 19.7552 260.749 18.4245 260.749 17C260.749 15.5755 260.506 14.2448 260.023 13.0077C259.535 11.7707 258.875 10.7117 258.033 9.82139C257.191 8.92172 256.187 8.21885 255.03 7.70342C253.867 7.17861 252.59 6.91621 251.204 6.91621C249.797 6.91621 248.516 7.17861 247.358 7.70342C246.196 8.21885 245.197 8.92172 244.355 9.82139C243.513 10.7117 242.848 11.7707 242.365 13.0077C241.878 14.2448 241.638 15.5755 241.638 17C241.638 18.4245 241.878 19.7552 242.365 20.9923C242.848 22.2293 243.513 23.2977 244.355 24.1974C245.197 25.0877 246.196 25.7905 247.358 26.3153C248.516 26.8308 249.797 27.0838 251.204 27.0838Z" fill="#393536"/>
<path d="M283.181 0.674805H296.361C298.848 0.674805 301.144 1.09652 303.248 1.93059C305.352 2.75529 307.175 3.89393 308.719 5.34184C310.259 6.78037 311.474 8.50005 312.354 10.4962C313.234 12.497 313.674 14.6665 313.674 17.0001C313.674 19.3383 313.234 21.4984 312.354 23.4852C311.474 25.4626 310.259 27.1776 308.719 28.6395C307.175 30.1015 305.352 31.2542 303.248 32.0883C301.144 32.913 298.848 33.3253 296.361 33.3253H283.181V0.674805ZM296.419 26.6528C297.806 26.6528 299.083 26.4091 300.245 25.9218C301.402 25.4345 302.411 24.7597 303.267 23.8975C304.133 23.0353 304.802 22.0232 305.276 20.8611C305.759 19.6897 306.003 18.4011 306.003 17.0001C306.003 15.6037 305.759 14.3198 305.276 13.1577C304.802 11.9863 304.133 10.9648 303.267 10.1026C302.411 9.24041 301.402 8.56565 300.245 8.07833C299.083 7.59101 297.806 7.34735 296.419 7.34735H290.45V26.6528H296.419Z" fill="#393536"/>
<path d="M328.445 0.674805H347.499V7.34735H335.715V13.3451H344.304V20.0177H335.715V26.6528H347.748V33.3253H328.445V0.674805Z" fill="#393536"/>
</svg>
