<svg width="30" height="30" viewBox="0 0 30 30" fill="none" xmlns="http://www.w3.org/2000/svg">
<circle cx="15" cy="20" r="3.75" stroke="#858585"/>
<path d="M15 24.075L12.1714 26.7868C11.7663 27.1752 11.5638 27.3694 11.3923 27.4366C11.0014 27.5897 10.5678 27.4586 10.3622 27.1253C10.272 26.9789 10.2439 26.7151 10.1876 26.1873C10.1559 25.8893 10.14 25.7403 10.0918 25.6155C9.98393 25.3361 9.75724 25.1188 9.46583 25.0153C9.33566 24.9691 9.18024 24.9539 8.86942 24.9235C8.3189 24.8696 8.04364 24.8426 7.89104 24.7561C7.54329 24.559 7.40661 24.1433 7.56632 23.7686C7.63641 23.6042 7.83895 23.41 8.24404 23.0216L10.0918 21.2501L11.3923 19.9497" stroke="#858585"/>
<path d="M15 24.0749L17.8286 26.7867C18.2337 27.175 18.4362 27.3692 18.6077 27.4364C18.9986 27.5895 19.4322 27.4585 19.6378 27.1251C19.728 26.9788 19.7561 26.7149 19.8124 26.1871C19.8441 25.8891 19.86 25.7401 19.9082 25.6153C20.0161 25.3359 20.2428 25.1186 20.5342 25.0152C20.6643 24.969 20.8198 24.9538 21.1306 24.9233C21.6811 24.8694 21.9564 24.8425 22.109 24.756C22.4567 24.5588 22.5934 24.1432 22.4337 23.7684C22.3636 23.604 22.161 23.4098 21.756 23.0215L19.9082 21.25L18.75 20.0918" stroke="#858585"/>
<path d="M21.6496 22.4947C24.1151 22.4685 25.4893 22.314 26.4017 21.4016C27.5 20.3033 27.5 18.5355 27.5 15V11.25M8.75 22.4978C6.03122 22.4827 4.55883 22.3621 3.59835 21.4016C2.5 20.3033 2.5 18.5355 2.5 15L2.5 10C2.5 6.46447 2.5 4.6967 3.59835 3.59835C4.6967 2.5 6.46447 2.5 10 2.5L20 2.5C23.5355 2.5 25.3033 2.5 26.4017 3.59835C27.014 4.21071 27.285 5.03114 27.4049 6.25" stroke="#858585" stroke-linecap="round"/>
<path d="M11.25 7.5L18.75 7.5" stroke="#858585" stroke-linecap="round"/>
<path d="M8.75 11.875H11.25M21.25 11.875H15.625" stroke="#858585" stroke-linecap="round"/>
</svg>
