<svg width="21" height="21" viewBox="0 0 21 21" fill="none" xmlns="http://www.w3.org/2000/svg">
<path d="M10.5 6.27777V10.5L13.1389 13.1388" stroke="#1C274C" stroke-linecap="round" stroke-linejoin="round"/>
<path d="M3.74889 3.74889L3.39534 3.39534L3.74889 3.74889ZM2.41217 5.08562L1.91217 5.08813C1.91355 5.36231 2.13548 5.58424 2.40965 5.58562L2.41217 5.08562ZM5.09661 5.59912C5.37275 5.60051 5.59773 5.37778 5.59912 5.10164C5.60051 4.8255 5.37778 4.60052 5.10164 4.59913L5.09661 5.59912ZM2.89866 2.39615C2.89727 2.12001 2.67229 1.89728 2.39615 1.89867C2.12001 1.90006 1.89728 2.12504 1.89867 2.40118L2.89866 2.39615ZM1.5 10.5C1.5 10.2238 1.27614 9.99996 1 9.99996C0.723858 9.99996 0.5 10.2238 0.5 10.5H1.5ZM15.5003 19.1618C15.7393 19.0235 15.821 18.7177 15.6827 18.4786C15.5445 18.2396 15.2386 18.1579 14.9996 18.2962L15.5003 19.1618ZM18.2962 14.9996C18.1579 15.2386 18.2396 15.5445 18.4786 15.6827C18.7177 15.821 19.0235 15.7393 19.1618 15.5003L18.2962 14.9996ZM3.46443 3.39358C3.2682 3.58787 3.26662 3.90445 3.46091 4.10068C3.6552 4.29691 3.97178 4.29849 4.16801 4.1042L3.46443 3.39358ZM17.5372 3.46285C13.6168 -0.457611 7.28522 -0.494538 3.39534 3.39534L4.10245 4.10245C7.59512 0.609777 13.2935 0.633303 16.8301 4.16996L17.5372 3.46285ZM3.39534 3.39534L2.05861 4.73207L2.76572 5.43917L4.10245 4.10245L3.39534 3.39534ZM2.40965 5.58562L5.09661 5.59912L5.10164 4.59913L2.41468 4.58563L2.40965 5.58562ZM2.91216 5.08311L2.89866 2.39615L1.89867 2.40118L1.91217 5.08813L2.91216 5.08311ZM10.5 1.5C15.4705 1.5 19.4999 5.52942 19.4999 10.5H20.4999C20.4999 4.97713 16.0228 0.5 10.5 0.5V1.5ZM10.5 19.4999C5.52942 19.4999 1.5 15.4705 1.5 10.5H0.5C0.5 16.0228 4.97713 20.4999 10.5 20.4999V19.4999ZM14.9996 18.2962C13.6763 19.0616 12.1401 19.4999 10.5 19.4999V20.4999C12.3206 20.4999 14.0289 20.0129 15.5003 19.1618L14.9996 18.2962ZM19.4999 10.5C19.4999 12.1401 19.0616 13.6763 18.2962 14.9996L19.1618 15.5003C20.0129 14.0289 20.4999 12.3206 20.4999 10.5H19.4999ZM4.16801 4.1042C5.79462 2.49371 8.03075 1.5 10.5 1.5V0.5C7.75672 0.5 5.27066 1.60525 3.46443 3.39358L4.16801 4.1042Z" fill="#1C274C"/>
</svg>
