<svg width="106" height="106" viewBox="0 0 106 106" fill="none" xmlns="http://www.w3.org/2000/svg">
<path d="M1 55.6007L10.1082 47.6311C14.8469 43.4848 21.9886 43.7226 26.4409 48.1749L48.7475 70.4815C52.3211 74.0551 57.9465 74.5423 62.0813 71.6364L63.6319 70.5467C69.582 66.3651 77.6321 66.8496 83.0376 71.7146L99.8 86.8007" stroke="#B7B7B7" stroke-width="1.5" stroke-linecap="round"/>
<path d="M79.0006 1V47.8M79.0006 1L63.4006 16.6M79.0006 1L94.6006 16.6" stroke="#B7B7B7" stroke-width="1.5" stroke-linecap="round" stroke-linejoin="round"/>
<path d="M105 53C105 77.513 105 89.7695 97.3848 97.3848C89.7695 105 77.513 105 53 105C28.487 105 16.2304 105 8.61522 97.3848C1 89.7695 1 77.513 1 53C1 47.1326 1 41.9674 1.10443 37.4M53 1C28.487 1 16.2304 1 8.61522 8.61522C6.40616 10.8243 4.83791 13.4239 3.72459 16.6" stroke="#B7B7B7" stroke-width="1.5" stroke-linecap="round"/>
</svg>
