<svg width="127" height="102" viewBox="0 0 127 102" fill="none" xmlns="http://www.w3.org/2000/svg">
<path d="M94.75 35.3762L98.8647 33.3188C111.027 27.2379 117.107 24.1975 121.554 26.9454C126 29.6934 126 36.492 126 50.0893V51.9131C126 65.5104 126 72.309 121.554 75.057C117.107 77.8049 111.027 74.7645 98.8647 68.6836L94.75 66.6262V35.3762Z" stroke="#B7B7B7" stroke-width="1.5"/>
<path d="M47.875 72.875L47.875 29.125M47.875 29.125L63.5 47.875M47.875 29.125L32.25 47.875" stroke="#B7B7B7" stroke-width="1.5" stroke-linecap="round" stroke-linejoin="round"/>
<path d="M1 47.875V54.125C1 74.6718 1 84.9451 6.67474 91.8598C7.7136 93.1257 8.87432 94.2864 10.1402 95.3253C17.0549 101 27.3282 101 47.875 101C68.4218 101 78.6951 101 85.6098 95.3253C86.8757 94.2864 88.0364 93.1257 89.0753 91.8598C94.75 84.9451 94.75 74.6718 94.75 54.125V47.875C94.75 27.3282 94.75 17.0549 89.0753 10.1402C88.0364 8.87432 86.8757 7.7136 85.6098 6.67474C78.6951 1 68.4218 1 47.875 1C27.3282 1 17.0549 1 10.1402 6.67474C8.87432 7.7136 7.7136 8.87432 6.67474 10.1402C4.00086 13.3983 2.58689 17.4021 1.83916 22.875" stroke="#B7B7B7" stroke-width="1.5" stroke-linecap="round"/>
</svg>
