<svg width="17" height="11" viewBox="0 0 17 11" fill="none" xmlns="http://www.w3.org/2000/svg">
<path fill-rule="evenodd" clip-rule="evenodd" d="M1.48255 8.05273C1.31412 8.42732 0.860257 8.60072 0.468301 8.44005C0.0760403 8.27925 -0.10539 7.84412 0.0627217 7.46892L0.0630544 7.46818L0.0638831 7.46635L0.0661951 7.46126L0.073447 7.44553C0.0794524 7.43261 0.0878081 7.41488 0.0985396 7.39266C0.119998 7.34822 0.150988 7.28576 0.191718 7.20784C0.273121 7.05212 0.393781 6.834 0.555428 6.57424C0.87142 6.06647 1.34864 5.39218 2.00159 4.71238L1.38539 4.12298C1.08362 3.83433 1.08362 3.36635 1.38539 3.07771C1.68716 2.78907 2.17642 2.78907 2.47819 3.07771L3.1276 3.69886C3.56418 3.36165 4.05224 3.04394 4.59324 2.77008L3.98866 1.88133C3.7559 1.53918 3.8572 1.08134 4.21491 0.858713C4.57262 0.636086 5.05129 0.732976 5.28404 1.07512L6.04533 2.19423C6.56832 2.04084 7.12868 1.93159 7.72727 1.88045V0.739114C7.72727 0.330913 8.07323 0 8.5 0L8.5 3.32601C6.37678 3.32601 4.77626 4.21191 3.629 5.23946C3.62274 5.24527 3.6164 5.25097 3.60998 5.25654C3.45661 5.39472 3.3114 5.53539 3.17418 5.67673C2.59204 6.27638 2.1647 6.87835 1.88343 7.33033C1.74323 7.55562 1.64052 7.74171 1.57402 7.86893C1.5408 7.93248 1.5167 7.98117 1.50156 8.01253C1.49399 8.0282 1.48867 8.03952 1.48557 8.04618L1.48255 8.05273ZM0.0627217 7.46892L0.772695 7.76069C0.0624434 7.46954 0.0627217 7.46892 0.0627217 7.46892Z" fill="white"/>
<path fill-rule="evenodd" clip-rule="evenodd" d="M15.5175 8.05273C15.6859 8.42732 16.1397 8.60072 16.5317 8.44005C16.924 8.27925 17.1054 7.84412 16.9373 7.46892L16.9369 7.46818L16.9361 7.46635L16.9338 7.46126L16.9266 7.44553C16.9205 7.43261 16.9122 7.41488 16.9015 7.39266C16.88 7.34822 16.849 7.28576 16.8083 7.20784C16.7269 7.05212 16.6062 6.834 16.4446 6.57424C16.1286 6.06647 15.6514 5.39218 14.9984 4.71238L15.6146 4.12298C15.9164 3.83433 15.9164 3.36635 15.6146 3.07771C15.3128 2.78907 14.8236 2.78907 14.5218 3.07771L13.8724 3.69886C13.4358 3.36165 12.9478 3.04394 12.4068 2.77008L13.0113 1.88133C13.2441 1.53918 13.1428 1.08134 12.7851 0.858713C12.4274 0.636086 11.9487 0.732976 11.716 1.07512L10.9547 2.19423C10.4317 2.04084 9.87132 1.93159 9.27273 1.88045V0.739114C9.27273 0.330913 8.92677 0 8.5 0L8.5 3.32601C10.6232 3.32601 12.2237 4.21191 13.371 5.23946C13.3773 5.24527 13.3836 5.25097 13.39 5.25654C13.5434 5.39472 13.6886 5.53539 13.8258 5.67673C14.408 6.27638 14.8353 6.87835 15.1166 7.33033C15.2568 7.55562 15.3595 7.74171 15.426 7.86893C15.4592 7.93248 15.4833 7.98117 15.4984 8.01253C15.506 8.0282 15.5113 8.03952 15.5144 8.04618L15.5175 8.05273ZM16.9373 7.46892L16.2273 7.76069C16.9376 7.46954 16.9373 7.46892 16.9373 7.46892Z" fill="white"/>
<path d="M11 8.31836C11 9.69907 9.88071 10.8184 8.5 10.8184C7.11929 10.8184 6 9.69907 6 8.31836C6 6.93765 7.11929 5.81836 8.5 5.81836C9.88071 5.81836 11 6.93765 11 8.31836Z" fill="#8D9091"/>
</svg>
