<svg width="20" height="21" viewBox="0 0 20 21" fill="none" xmlns="http://www.w3.org/2000/svg">
<path d="M1.04289 7.29289C0.75 7.58579 0.75 8.05719 0.75 9V15C0.75 15.9428 0.75 16.4142 1.04289 16.7071C1.33579 17 1.80719 17 2.75 17C3.69281 17 4.16421 17 4.45711 16.7071C4.75 16.4142 4.75 15.9428 4.75 15V9C4.75 8.05719 4.75 7.58579 4.45711 7.29289C4.16421 7 3.69281 7 2.75 7C1.80719 7 1.33579 7 1.04289 7.29289Z" fill="#F01E29"/>
<path opacity="1" d="M15.0429 0.292893C14.75 0.585786 14.75 1.05719 14.75 2V15C14.75 15.9428 14.75 16.4142 15.0429 16.7071C15.3358 17 15.8072 17 16.75 17C17.6928 17 18.1642 17 18.4571 16.7071C18.75 16.4142 18.75 15.9428 18.75 15V2C18.75 1.05719 18.75 0.585786 18.4571 0.292893C18.1642 0 17.6928 0 16.75 0C15.8072 0 15.3358 0 15.0429 0.292893Z" fill="#B7B7B7"/>
<path opacity="1" d="M7.75 5C7.75 4.05719 7.75 3.58579 8.04289 3.29289C8.33579 3 8.80719 3 9.75 3C10.6928 3 11.1642 3 11.4571 3.29289C11.75 3.58579 11.75 4.05719 11.75 5V15C11.75 15.9428 11.75 16.4142 11.4571 16.7071C11.1642 17 10.6928 17 9.75 17C8.80719 17 8.33579 17 8.04289 16.7071C7.75 16.4142 7.75 15.9428 7.75 15V5Z" fill="#E2E2E2"/>
<path d="M0.75 19.25C0.335786 19.25 0 19.5858 0 20C0 20.4142 0.335786 20.75 0.75 20.75H18.75C19.1642 20.75 19.5 20.4142 19.5 20C19.5 19.5858 19.1642 19.25 18.75 19.25H0.75Z" fill="#B7B7B7"/>
</svg>
