<svg width="129" height="144" viewBox="0 0 129 144" fill="none" xmlns="http://www.w3.org/2000/svg">
<path d="M0.0139267 4.76697L9.52377 124.331C9.66653 126.126 10.9031 127.657 12.6501 128.201L62.6911 143.793C63.576 144.069 64.5261 144.069 65.411 143.793L115.452 128.201C117.199 127.657 118.436 126.126 118.578 124.331L128.088 4.76697C128.293 2.19642 126.225 0 123.602 0H4.50036C1.87695 0 -0.190263 2.19642 0.0139267 4.76697ZM103.701 41.8636H41.7233L43.5938 58.8143H102.353L98.509 107.138L64.0512 117.875L29.5934 107.138L27.5853 81.892H45.6714V94.2757L64.5345 99.251L83.2849 94.2757L84.7395 74.5395H27.0004L23.167 26.3421H104.935L103.701 41.8636Z" fill="#FC490B"/>
</svg>
