<svg width="57" height="57" viewBox="0 0 57 57" fill="none" xmlns="http://www.w3.org/2000/svg">
<path d="M0 0H57V57H0V0Z" fill="#F0DB4F"/>
<path d="M52.3349 43.4056C51.9177 40.8049 50.2217 38.6213 45.199 36.584C43.4544 35.7821 41.5092 35.2079 40.9294 33.8858C40.7236 33.1164 40.6965 32.6829 40.8265 32.2169C41.2004 30.7052 43.0046 30.2339 44.4351 30.6673C45.3562 30.9762 46.2285 31.686 46.7541 32.8184C49.214 31.2254 49.2085 31.2362 50.9261 30.1418C50.2976 29.1665 49.9617 28.7167 49.5499 28.2996C48.0707 26.647 46.0551 25.7964 42.8313 25.8614C42.2732 25.9318 41.7097 26.0076 41.1516 26.0781C39.5424 26.4845 38.009 27.3297 37.1096 28.4621C34.4113 31.5235 35.1807 36.882 38.4641 39.0873C41.6988 41.5147 46.4506 42.0674 47.0575 44.3376C47.6481 47.1172 45.0149 48.0166 42.3978 47.6969C40.4689 47.296 39.3961 46.3153 38.2366 44.5327C36.1018 45.768 36.1018 45.768 33.9074 47.0305C34.4276 48.1683 34.9748 48.6831 35.8472 49.6692C39.9759 53.8575 50.3084 53.6516 52.1615 47.3122C52.2373 47.0955 52.7359 45.6434 52.3349 43.4056ZM30.987 26.1973H25.6554C25.6554 30.8028 25.6338 35.3758 25.6338 39.9813C25.6338 42.9126 25.7855 45.6 25.3087 46.4236C24.5285 48.0436 22.5074 47.8432 21.5863 47.5289C20.649 47.0683 20.1722 46.4127 19.6195 45.4862C19.4678 45.2207 19.354 45.0148 19.316 44.9986C17.8694 45.8818 16.4281 46.7703 14.9814 47.6535C15.7021 49.1327 16.764 50.4168 18.124 51.2512C20.1559 52.4703 22.8867 52.8442 25.7421 52.1886C27.6006 51.6467 29.2044 50.5252 30.0442 48.8185C31.2579 46.5807 30.9978 43.8716 30.987 40.8753C31.0141 35.988 30.987 31.1008 30.987 26.1973Z" fill="#323330"/>
</svg>
