<svg width="68" height="66" viewBox="0 0 68 66" fill="none" xmlns="http://www.w3.org/2000/svg">
<g clip-path="url(#clip0_69_821)">
<path d="M0 0H68V66H0V0Z" fill="#F0DB4F"/>
<path d="M62.4345 50.2591C61.9368 47.2477 59.9136 44.7194 53.9216 42.3605C51.8402 41.432 49.5197 40.767 48.8281 39.2361C48.5824 38.3453 48.5501 37.8434 48.7053 37.3038C49.1513 35.5534 51.3037 35.0076 53.0102 35.5095C54.1091 35.8671 55.1497 36.689 55.7767 38.0002C58.7113 36.1558 58.7049 36.1683 60.7539 34.901C60.0041 33.7717 59.6034 33.251 59.1121 32.7679C57.3475 30.8544 54.9429 29.8695 51.0969 29.9448C50.4311 30.0263 49.7589 30.1141 49.0931 30.1957C47.1734 30.6662 45.344 31.6449 44.271 32.9562C41.052 36.5008 41.9699 42.7055 45.887 45.259C49.7459 48.0697 55.4148 48.7096 56.1387 51.3383C56.8433 54.5567 53.7019 55.5981 50.5798 55.228C48.2786 54.7638 46.9989 53.6282 45.6155 51.5641C43.0688 52.9946 43.0688 52.9946 40.451 54.4563C41.0715 55.7738 41.7243 56.3698 42.765 57.5117C47.6905 62.3613 60.017 62.1229 62.2278 54.7826C62.3182 54.5316 62.9129 52.8502 62.4345 50.2591ZM36.9669 30.3337H30.6064C30.6064 35.6664 30.5806 40.9614 30.5806 46.2941C30.5806 49.6882 30.7616 52.8 30.1928 53.7536C29.262 55.6294 26.851 55.3973 25.7521 55.0334C24.6338 54.5001 24.065 53.741 23.4057 52.6683C23.2247 52.3608 23.089 52.1224 23.0437 52.1036C21.3179 53.1262 19.5984 54.1551 17.8726 55.1778C18.7323 56.8905 19.9992 58.3774 21.6216 59.3435C24.0456 60.7551 27.3034 61.188 30.7099 60.4288C32.927 59.8015 34.8402 58.5029 35.8421 56.5266C37.2901 53.9356 36.9798 50.7987 36.9669 47.3293C36.9992 41.6704 36.9669 36.0114 36.9669 30.3337Z" fill="#323330"/>
</g>
<defs>
<clipPath id="clip0_69_821">
<rect width="68" height="66" fill="white"/>
</clipPath>
</defs>
</svg>
