<svg width="30" height="30" viewBox="0 0 30 30" fill="none" xmlns="http://www.w3.org/2000/svg">
<rect width="29.9998" height="30" rx="2" fill="#D9D9D9"/>
<path fill-rule="evenodd" clip-rule="evenodd" d="M25.9993 24H21.9994V17.001C21.9994 15.081 21.1524 14.0098 19.6334 14.0098C17.9804 14.0098 16.9994 15.126 16.9994 17.001V24H12.9995V11H16.9994V12.4619C16.9994 12.4619 18.2544 10.2598 21.0824 10.2598C23.9114 10.2598 25.9993 11.9861 25.9993 15.5581V24ZM8.44149 8.9209C7.0925 8.9209 5.99951 7.81896 5.99951 6.45996C5.99951 5.10196 7.0925 4 8.44149 4C9.78948 4 10.8825 5.10196 10.8825 6.45996C10.8835 7.81896 9.78948 8.9209 8.44149 8.9209ZM5.99951 24H10.9995V11H5.99951V24Z" fill="white"/>
</svg>
