<svg width="10" height="11" viewBox="0 0 10 11" fill="none" xmlns="http://www.w3.org/2000/svg">
<path d="M0.512453 3.58069C0.368652 3.72449 0.368652 3.95593 0.368652 4.41882V7.36462C0.368652 7.8275 0.368652 8.05895 0.512453 8.20275C0.656254 8.34655 0.887697 8.34655 1.35058 8.34655C1.81347 8.34655 2.04491 8.34655 2.18872 8.20275C2.33252 8.05895 2.33252 7.8275 2.33252 7.36462V4.41882C2.33252 3.95593 2.33252 3.72449 2.18872 3.58069C2.04491 3.43689 1.81347 3.43689 1.35058 3.43689C0.887697 3.43689 0.656254 3.43689 0.512453 3.58069Z" fill="#F01E29"/>
<path opacity="0.4" d="M7.38501 0.143801C7.24121 0.287601 7.24121 0.519045 7.24121 0.981932V7.36449C7.24121 7.82738 7.24121 8.05882 7.38501 8.20262C7.52881 8.34642 7.76026 8.34642 8.22314 8.34642C8.68603 8.34642 8.91747 8.34642 9.06127 8.20262C9.20507 8.05882 9.20507 7.82738 9.20507 7.36449V0.981932C9.20507 0.519045 9.20507 0.287601 9.06127 0.143801C8.91747 0 8.68603 0 8.22314 0C7.76026 0 7.52881 0 7.38501 0.143801Z" fill="black"/>
<path opacity="0.7" d="M3.80518 2.45486C3.80518 1.99198 3.80518 1.76053 3.94898 1.61673C4.09278 1.47293 4.32422 1.47293 4.78711 1.47293C5.24999 1.47293 5.48144 1.47293 5.62524 1.61673C5.76904 1.76053 5.76904 1.99198 5.76904 2.45486V7.36452C5.76904 7.82741 5.76904 8.05885 5.62524 8.20265C5.48144 8.34645 5.24999 8.34645 4.78711 8.34645C4.32422 8.34645 4.09278 8.34645 3.94898 8.20265C3.80518 8.05885 3.80518 7.82741 3.80518 7.36452V2.45486Z" fill="black"/>
<path d="M0.368224 9.45114C0.16486 9.45114 0 9.616 0 9.81937C0 10.0227 0.16486 10.1876 0.368224 10.1876H9.20561C9.40898 10.1876 9.57384 10.0227 9.57384 9.81937C9.57384 9.616 9.40898 9.45114 9.20561 9.45114H0.368224Z" fill="black"/>
</svg>
