<svg width="78" height="90" viewBox="0 0 78 90" fill="none" xmlns="http://www.w3.org/2000/svg">
<path d="M0.51293 2.97936L6.19547 77.7067C6.28078 78.8288 7.01971 79.7858 8.06356 80.1259L37.9652 89.8708C38.494 90.0431 39.0617 90.0431 39.5905 89.8708L69.4921 80.1259C70.536 79.7858 71.2749 78.8288 71.3602 77.7067L77.0428 2.97936C77.165 1.37276 75.9297 0 74.3621 0H3.19377C1.62616 0 0.390918 1.37276 0.51293 2.97936ZM62.4703 26.1648H25.4361L26.5537 36.759H61.6648L59.3679 66.9616L38.7779 73.6718L18.1879 66.9616L16.988 51.1825H27.7952V58.9224L39.0667 62.0319L50.2709 58.9224L51.1401 46.5872H16.6385L14.3479 16.4638H63.2078L62.4703 26.1648Z" fill="white"/>
</svg>
