<svg width="88" height="89" viewBox="0 0 88 89" fill="none" xmlns="http://www.w3.org/2000/svg">
<g clip-path="url(#clip0_413_561)">
<path d="M0.592834 0.793762H87.1573V88.6678H0.592834V0.793762Z" fill="white"/>
<path d="M80.0725 67.7099C79.4389 63.7005 76.8633 60.3342 69.2355 57.1935C66.5859 55.9572 63.6318 55.0719 62.7514 53.0337C62.4387 51.8475 62.3975 51.1793 62.595 50.4609C63.1628 48.1304 65.9029 47.4037 68.0752 48.0719C69.4741 48.5481 70.7989 49.6424 71.597 51.3881C75.3328 48.9324 75.3246 48.949 77.933 47.2618C76.9785 45.7582 76.4684 45.0648 75.843 44.4217C73.5966 41.8741 70.5356 40.5626 65.6396 40.6629C64.792 40.7715 63.9363 40.8883 63.0887 40.997C60.6449 41.6235 58.3162 42.9266 56.9502 44.6723C52.8524 49.3918 54.0209 57.6529 59.0074 61.0527C63.9198 64.7948 71.1362 65.6468 72.0578 69.1468C72.9548 73.4319 68.9558 74.8184 64.9813 74.3256C62.0519 73.7075 60.4228 72.1956 58.6618 69.4475C55.4198 71.352 55.4198 71.352 52.0872 73.2982C52.8772 75.0523 53.7082 75.8459 55.033 77.3661C61.3032 83.823 76.995 83.5056 79.8092 73.7326C79.9243 73.3984 80.6815 71.1597 80.0725 67.7099ZM47.6519 41.1807H39.555C39.555 48.2808 39.5222 55.3307 39.5222 62.4308C39.5222 66.9498 39.7526 71.0929 39.0285 72.3626C37.8436 74.8601 34.7743 74.5511 33.3755 74.0665C31.9519 73.3565 31.2278 72.3458 30.3885 70.9175C30.1581 70.5082 29.9853 70.1908 29.9276 70.1657C27.7307 71.5273 25.5418 72.8971 23.3448 74.2587C24.4393 76.5391 26.052 78.5188 28.1174 79.8051C31.2031 81.6845 35.3503 82.2609 39.6868 81.2501C42.5092 80.4148 44.9448 78.6858 46.2202 76.0546C48.0634 72.6048 47.6684 68.4283 47.6519 63.8091C47.6931 56.2746 47.6519 48.7402 47.6519 41.1807Z" fill="#F0DB4F"/>
</g>
<defs>
<clipPath id="clip0_413_561">
<rect width="86.5644" height="87.874" fill="white" transform="translate(0.592834 0.793762)"/>
</clipPath>
</defs>
</svg>
