<svg width="102" height="90" viewBox="0 0 102 90" fill="none" xmlns="http://www.w3.org/2000/svg">
<path d="M83.1704 29.1707C82.1211 28.8095 81.0337 28.4677 79.9141 28.1445C80.0981 27.3935 80.267 26.6522 80.4172 25.9236C82.8822 13.9583 81.2705 4.31898 75.7671 1.14531C70.49 -1.89782 61.8597 1.27513 53.1436 8.86054C52.3054 9.58994 51.4649 10.3622 50.6248 11.1716C50.065 10.6361 49.5061 10.1186 48.9486 9.62361C39.8138 1.51281 30.6576 -1.9052 25.1596 1.27765C19.8876 4.3296 18.3263 13.3915 20.5451 24.731C20.7594 25.8263 21.0098 26.9448 21.2931 28.0821C19.9972 28.4499 18.7462 28.8421 17.5492 29.2593C6.83961 32.9931 0 38.8449 0 44.9148C0 51.1838 7.34233 57.4717 18.4972 61.2844C19.3775 61.5853 20.2909 61.8698 21.2322 62.1399C20.9267 63.3698 20.6609 64.5751 20.4378 65.7507C18.3222 76.8935 19.9743 85.7412 25.2323 88.7739C30.6634 91.9058 39.7782 88.6866 48.6537 80.9283C49.3552 80.3151 50.0592 79.6647 50.7645 78.983C51.6786 79.8633 52.5913 80.6964 53.4992 81.4779C62.0961 88.8758 70.587 91.8632 75.8402 88.822C81.2658 85.6811 83.0291 76.1765 80.7399 64.6126C80.565 63.7294 80.3616 62.8271 80.1331 61.9088C80.7732 61.7196 81.4016 61.5242 82.0143 61.3211C93.6108 57.4789 101.156 51.2675 101.156 44.9148C101.156 38.8229 94.0957 32.9317 83.1704 29.1707ZM80.6552 57.2193C80.1021 57.4024 79.5346 57.5794 78.9562 57.751C77.676 53.6981 75.9482 49.3885 73.8338 44.9359C75.8515 40.5893 77.5125 36.3348 78.7569 32.3082C79.7917 32.6076 80.796 32.9234 81.7638 33.2567C91.1246 36.4792 96.8345 41.2436 96.8345 44.9148C96.8345 48.8252 90.668 53.9016 80.6552 57.2193ZM76.5006 65.4518C77.5129 70.5652 77.6575 75.1883 76.987 78.8024C76.3845 82.0499 75.1729 84.2151 73.6748 85.0822C70.4869 86.9275 63.6696 84.5289 56.3174 78.2021C55.4746 77.4769 54.6256 76.7024 53.7739 75.8828C56.6242 72.7655 59.4729 69.1415 62.2531 65.1167C67.1433 64.6828 71.7633 63.9734 75.9531 63.0048C76.1594 63.8372 76.3427 64.6536 76.5006 65.4518ZM34.4863 84.7634C31.3717 85.8633 28.8911 85.8948 27.3916 85.0302C24.2008 83.1899 22.8743 76.0859 24.6837 66.5566C24.891 65.4653 25.1376 64.3443 25.4219 63.1984C29.5658 64.1147 34.152 64.7741 39.0538 65.1715C41.8528 69.1098 44.7837 72.7299 47.7374 75.8996C47.0921 76.5226 46.4493 77.1157 45.8101 77.6746C41.8854 81.1052 37.9524 83.5392 34.4863 84.7634ZM19.8948 57.1953C14.9623 55.5095 10.8889 53.3184 8.09676 50.9274C5.58786 48.7788 4.32117 46.6457 4.32117 44.9148C4.32117 41.2314 9.8127 36.5332 18.9716 33.3399C20.0829 32.9524 21.2463 32.5872 22.4535 32.2442C23.7193 36.3618 25.3798 40.6667 27.3837 45.0199C25.3539 49.4378 23.6698 53.8114 22.3916 57.9771C21.5309 57.7297 20.6971 57.4694 19.8948 57.1953ZM24.786 23.9012C22.885 14.1857 24.1475 6.85669 27.3246 5.0176C30.7087 3.05841 38.1921 5.8518 46.0792 12.8551C46.5834 13.3027 47.0895 13.7712 47.5971 14.2559C44.6581 17.4118 41.7539 21.0046 38.9798 24.9197C34.2224 25.3607 29.6684 26.069 25.4814 27.0176C25.2181 25.9587 24.9849 24.9183 24.786 23.9012ZM68.4201 34.6755C67.4191 32.9466 66.3916 31.2586 65.344 29.6167C68.5715 30.0247 71.6638 30.5663 74.5677 31.2291C73.6959 34.0232 72.6092 36.9446 71.3301 39.9395C70.4126 38.1974 69.4421 36.441 68.4201 34.6755ZM50.6262 17.3442C52.6194 19.5037 54.6155 21.9146 56.5788 24.5305C54.6004 24.437 52.5975 24.3884 50.5779 24.3884C48.5775 24.3884 46.5893 24.4359 44.6231 24.5278C46.5884 21.9362 48.6018 19.5285 50.6262 17.3442ZM32.7184 34.7054C31.7185 36.4392 30.766 38.1861 29.8628 39.9362C28.6044 36.9518 27.5279 34.0171 26.6485 31.1833C29.5346 30.5375 32.6123 30.0094 35.8193 29.6091C34.757 31.2662 33.7209 32.967 32.7184 34.7054ZM35.9117 60.5287C32.5983 60.1591 29.4743 59.6581 26.5889 59.0301C27.4823 56.1458 28.5826 53.1484 29.8677 50.0997C30.7732 51.8486 31.7295 53.5962 32.7355 55.3337C33.7602 57.1039 34.822 58.8378 35.9117 60.5287ZM50.7458 72.79C48.6976 70.5802 46.6547 68.1357 44.6595 65.5064C46.5964 65.5823 48.571 65.6212 50.5779 65.6212C52.6398 65.6212 54.678 65.5748 56.6842 65.4855C54.7144 68.1622 52.7255 70.6104 50.7458 72.79ZM71.3714 49.9443C72.7234 53.026 73.8632 56.0077 74.7681 58.8428C71.8352 59.5119 68.6685 60.0508 65.3321 60.4513C66.3822 58.7872 67.4188 57.0702 68.4373 55.304C69.4678 53.5171 70.4462 51.7276 71.3714 49.9443ZM64.6942 53.1451C63.1129 55.8869 61.4895 58.5042 59.8415 60.9747C56.8398 61.1893 53.7386 61.2999 50.5779 61.2999C47.43 61.2999 44.368 61.2021 41.4194 61.0107C39.7049 58.5078 38.0462 55.8827 36.475 53.1687C34.908 50.4621 33.4661 47.7327 32.1593 45.0185C33.4658 42.298 34.9042 39.5655 36.4623 36.8638L36.4619 36.8643C38.0241 34.1554 39.6682 31.5431 41.3668 29.0558C44.3752 28.8284 47.4601 28.7097 50.5778 28.7097C53.7095 28.7097 56.7985 28.8293 59.806 29.0587C61.4787 31.5278 63.1116 34.1316 64.6799 36.8409C66.266 39.5806 67.7231 42.295 69.0407 44.9571C67.727 47.665 66.2733 50.4067 64.6942 53.1451ZM73.6086 4.88904C76.996 6.84247 78.3132 14.7206 76.185 25.0514C76.0492 25.7105 75.8964 26.382 75.7303 27.0624C71.5336 26.0941 66.9764 25.3735 62.2051 24.9259C59.4255 20.9677 56.5452 17.3693 53.654 14.2539C54.4313 13.5062 55.2075 12.7931 55.9805 12.1203C63.4485 5.62115 70.4284 3.05517 73.6086 4.88904ZM50.5779 35.8819C55.5666 35.8819 59.6108 39.926 59.6108 44.9148C59.6108 49.9034 55.5666 53.9477 50.5779 53.9477C45.5893 53.9477 41.5451 49.9034 41.5451 44.9148C41.5451 39.926 45.5893 35.8819 50.5779 35.8819Z" fill="white"/>
</svg>
