<svg width="165" height="147" viewBox="0 0 165 147" fill="none" xmlns="http://www.w3.org/2000/svg">
<path d="M135.663 47.5816C133.951 46.9925 132.178 46.435 130.352 45.9079C130.652 44.6828 130.927 43.4737 131.172 42.2851C135.193 22.768 132.564 7.04489 123.587 1.86817C114.979 -3.09562 100.902 2.07993 86.6849 14.4528C85.3177 15.6426 83.9468 16.9023 82.5764 18.2224C81.6633 17.349 80.7516 16.5049 79.8423 15.6975C64.9422 2.46761 50.007 -3.10766 41.039 2.08404C32.4395 7.06221 29.8929 21.8434 33.5121 40.3399C33.8616 42.1265 34.2701 43.951 34.7321 45.8059C32.6184 46.406 30.5778 47.0456 28.6253 47.7261C11.1564 53.8166 0 63.3617 0 73.2626C0 83.4883 11.9764 93.7448 30.1716 99.9638C31.6075 100.455 33.0974 100.919 34.6328 101.359C34.1344 103.365 33.7009 105.331 33.337 107.249C29.8861 125.424 32.5811 139.856 41.1576 144.803C50.0164 149.912 64.884 144.661 79.3613 132.006C80.5055 131.006 81.6539 129.945 82.8043 128.833C84.2954 130.269 85.7841 131.628 87.265 132.902C101.288 144.969 115.138 149.842 123.706 144.882C132.556 139.758 135.433 124.255 131.698 105.393C131.413 103.952 131.081 102.48 130.709 100.982C131.753 100.674 132.778 100.355 133.777 100.024C152.693 93.7565 165 83.6248 165 73.2626C165 63.3259 153.484 53.7164 135.663 47.5816ZM131.56 93.333C130.658 93.6317 129.732 93.9204 128.789 94.2003C126.701 87.5895 123.883 80.5598 120.434 73.2969C123.725 66.2071 126.434 59.2673 128.464 52.6993C130.152 53.1877 131.79 53.7029 133.369 54.2465C148.638 59.5028 157.951 67.2744 157.951 73.2626C157.951 79.6411 147.893 87.9213 131.56 93.333ZM124.784 106.761C126.435 115.102 126.671 122.643 125.577 128.538C124.594 133.835 122.618 137.367 120.174 138.782C114.974 141.791 103.854 137.879 91.8619 127.559C90.4871 126.376 89.1023 125.113 87.7131 123.776C92.3624 118.691 97.009 112.78 101.544 106.215C109.52 105.507 117.056 104.35 123.891 102.77C124.227 104.128 124.526 105.459 124.784 106.761ZM56.2522 138.261C51.1718 140.056 47.1256 140.107 44.6797 138.697C39.475 135.695 37.3114 124.107 40.2627 108.564C40.6008 106.783 41.0031 104.955 41.4669 103.086C48.2261 104.58 55.7068 105.656 63.7025 106.304C68.268 112.728 73.0488 118.633 77.8666 123.803C76.814 124.819 75.7655 125.787 74.7229 126.699C68.3212 132.294 61.9059 136.265 56.2522 138.261ZM32.4513 93.2939C24.4057 90.5441 17.7614 86.97 13.207 83.07C9.11462 79.5653 7.04845 76.0859 7.04845 73.2626C7.04845 67.2544 16.0059 59.5909 30.9455 54.3822C32.7582 53.7502 34.6558 53.1546 36.625 52.5951C38.6897 59.3113 41.3982 66.3334 44.6667 73.4341C41.3559 80.6403 38.6089 87.7742 36.524 94.5692C35.1201 94.1656 33.76 93.741 32.4513 93.2939ZM40.4296 38.9863C37.3287 23.1389 39.3881 11.1843 44.5704 8.18443C50.0905 4.98871 62.2968 9.54514 75.162 20.9685C75.9843 21.6986 76.8099 22.4628 77.6378 23.2535C72.8438 28.4011 68.1068 34.2616 63.5817 40.6477C55.8217 41.367 48.3935 42.5224 41.5638 44.0696C41.1344 42.3424 40.7541 40.6454 40.4296 38.9863ZM111.603 56.5609C109.97 53.7408 108.294 50.9874 106.586 48.3091C111.85 48.9746 116.894 49.8581 121.631 50.9392C120.209 55.4968 118.436 60.262 116.35 65.1471C114.853 62.3056 113.27 59.4406 111.603 56.5609ZM82.5787 28.291C85.8299 31.8133 89.0859 35.7459 92.2884 40.0128C89.0612 39.8603 85.7941 39.781 82.5 39.781C79.237 39.781 75.994 39.8586 72.7868 40.0084C75.9925 35.7812 79.2767 31.8538 82.5787 28.291ZM53.3684 56.6096C51.7375 59.4376 50.1838 62.2871 48.7107 65.1418C46.658 60.2738 44.902 55.4868 43.4676 50.8646C48.1752 49.8111 53.1954 48.9497 58.4265 48.2968C56.6937 50.9997 55.0037 53.774 53.3684 56.6096ZM58.5771 98.7312C53.1725 98.1282 48.0769 97.3111 43.3703 96.2867C44.8277 91.582 46.6225 86.6928 48.7186 81.7199C50.1956 84.5726 51.7554 87.4232 53.3963 90.2574C55.0677 93.1447 56.7997 95.973 58.5771 98.7312ZM82.7737 118.731C79.4329 115.127 76.1006 111.139 72.8462 106.85C76.0055 106.974 79.2264 107.038 82.5 107.038C85.8631 107.038 89.1878 106.962 92.4602 106.816C89.2471 111.182 86.0029 115.176 82.7737 118.731ZM116.417 81.4664C118.622 86.4931 120.482 91.3567 121.958 95.9813C117.174 97.0727 112.008 97.9517 106.566 98.6049C108.279 95.8905 109.97 93.0898 111.631 90.2089C113.312 87.2943 114.908 84.3752 116.417 81.4664ZM105.526 86.6875C102.946 91.1596 100.298 95.4288 97.6102 99.4587C92.7139 99.8087 87.6556 99.9891 82.5 99.9891C77.3653 99.9891 72.3707 99.8296 67.5611 99.5174C64.7645 95.4347 62.0589 91.1529 59.4961 86.726C56.9401 82.3111 54.5881 77.8589 52.4565 73.4317C54.5876 68.9943 56.9339 64.5371 59.4753 60.1302L59.4747 60.1311C62.0228 55.7124 64.7046 51.4514 67.4753 47.3943C72.3824 47.0233 77.4143 46.8298 82.4997 46.8298C87.608 46.8298 92.6467 47.0248 97.5523 47.399C100.281 51.4264 102.944 55.6736 105.502 60.0929C108.09 64.5618 110.466 68.9893 112.615 73.3316C110.473 77.7485 108.101 82.2206 105.526 86.6875ZM120.066 7.97473C125.592 11.1611 127.74 24.0115 124.269 40.8624C124.047 41.9377 123.798 43.0329 123.527 44.1427C116.682 42.5632 109.248 41.3878 101.466 40.6577C96.9317 34.2014 92.2334 28.3318 87.5175 23.2502C88.7854 22.0305 90.0516 20.8675 91.3124 19.7699C103.494 9.16891 114.879 4.98342 120.066 7.97473ZM82.5 58.5286C90.6372 58.5286 97.2339 65.1251 97.2339 73.2626C97.2339 81.3998 90.6372 87.9965 82.5 87.9965C74.3628 87.9965 67.7661 81.3998 67.7661 73.2626C67.7661 65.1251 74.3628 58.5286 82.5 58.5286Z" fill="#257BC2"/>
</svg>
